<svg id="svg" version="1.1" xmlns="http://www.w3.org/2000/svg" xmlns:xlink="http://www.w3.org/1999/xlink" width="400" height="400" viewBox="0, 0, 400,400"><g id="svgg"><path id="path0" d="M116.252 170.591 C 116.416 171.018,116.233 171.200,115.643 171.200 C 115.179 171.200,114.800 171.020,114.800 170.800 C 114.800 170.580,114.584 170.400,114.320 170.400 C 113.947 170.400,113.947 170.507,114.320 170.880 C 114.949 171.509,114.930 172.000,114.278 172.000 C 113.061 172.000,109.614 175.318,107.600 178.427 C 107.270 178.937,106.614 179.758,106.142 180.253 C 105.671 180.747,105.399 181.266,105.539 181.406 C 105.679 181.546,105.480 181.835,105.097 182.050 C 104.714 182.264,104.400 182.598,104.400 182.792 C 104.400 182.985,103.635 184.260,102.700 185.625 C 101.765 186.990,100.820 188.395,100.600 188.747 C 100.380 189.100,99.918 189.661,99.572 189.994 C 99.227 190.327,98.828 190.915,98.685 191.300 C 98.422 192.010,97.600 192.283,97.600 191.661 C 97.600 191.475,97.960 190.907,98.400 190.400 C 98.840 189.893,99.194 189.280,99.187 189.039 C 99.179 188.797,98.819 189.050,98.387 189.600 C 97.954 190.150,97.395 190.844,97.145 191.142 C 96.802 191.551,96.813 191.761,97.188 191.992 C 97.737 192.332,97.393 194.000,96.773 194.000 C 96.568 194.000,96.400 194.242,96.400 194.538 C 96.400 194.834,96.040 195.402,95.600 195.800 C 95.160 196.198,94.800 196.755,94.800 197.038 C 94.800 197.611,94.061 198.195,93.741 197.874 C 93.628 197.761,93.734 197.297,93.977 196.843 C 94.336 196.172,94.310 196.060,93.840 196.240 C 93.100 196.524,92.622 197.741,93.177 197.926 C 93.896 198.165,93.040 200.160,91.600 201.600 C 91.316 201.884,90.474 203.246,89.943 204.278 C 89.495 205.149,88.460 205.794,88.095 205.428 C 87.990 205.324,88.196 204.947,88.552 204.590 C 89.355 203.788,89.375 203.558,88.615 203.850 C 88.294 203.973,87.907 204.462,87.757 204.935 C 87.607 205.409,87.195 206.008,86.842 206.266 C 86.490 206.524,86.315 206.848,86.453 206.986 C 86.591 207.125,87.005 206.938,87.371 206.571 C 88.601 205.342,88.510 206.345,87.248 207.939 C 86.562 208.806,86.000 209.686,86.000 209.896 C 86.000 210.105,85.640 210.602,85.200 211.000 C 84.760 211.398,84.400 211.900,84.400 212.115 C 84.400 212.330,84.012 212.842,83.539 213.253 C 83.065 213.664,82.817 214.000,82.988 214.000 C 83.158 214.000,83.074 214.270,82.800 214.600 C 82.063 215.488,81.506 215.328,81.826 214.319 C 82.096 213.468,82.081 213.462,81.381 214.162 C 80.690 214.853,80.689 214.906,81.361 215.282 C 82.020 215.651,82.006 215.742,81.164 216.639 C 80.667 217.167,80.399 217.600,80.568 217.600 C 80.736 217.600,80.138 218.480,79.237 219.556 C 78.337 220.631,77.600 221.702,77.600 221.936 C 77.600 222.169,77.375 222.504,77.100 222.680 C 76.539 223.039,75.791 224.155,75.209 225.500 C 74.706 226.664,73.851 226.700,74.218 225.542 C 74.457 224.792,74.415 224.754,73.886 225.242 C 73.464 225.631,73.403 225.950,73.685 226.295 C 73.907 226.567,73.985 227.062,73.857 227.395 C 73.651 227.932,77.316 228.000,106.475 228.000 C 138.727 228.000,139.311 227.986,138.636 227.240 C 138.186 226.742,138.095 226.388,138.374 226.216 C 139.090 225.774,138.850 224.852,137.900 224.392 C 137.088 223.998,137.068 224.011,137.700 224.522 C 138.085 224.833,138.400 225.293,138.400 225.544 C 138.400 226.535,137.576 225.899,136.227 223.867 C 135.448 222.694,134.447 221.405,134.002 221.002 C 133.259 220.330,133.245 220.213,133.829 219.568 C 134.487 218.841,133.151 216.715,132.467 217.399 C 132.321 217.546,132.548 217.919,132.971 218.229 C 133.841 218.865,133.648 219.347,132.672 218.972 C 132.319 218.837,131.907 218.338,131.757 217.865 C 131.607 217.391,131.195 216.792,130.842 216.534 C 130.490 216.276,130.323 215.944,130.472 215.795 C 130.620 215.646,130.146 215.002,129.418 214.362 L 128.094 213.200 117.824 213.200 C 110.853 213.200,107.635 213.067,107.808 212.786 C 107.971 212.523,107.655 212.447,106.935 212.577 C 106.314 212.690,105.744 212.967,105.669 213.194 C 105.593 213.420,105.363 213.500,105.156 213.373 C 104.949 213.245,105.324 212.453,105.990 211.613 C 106.655 210.772,107.200 209.914,107.200 209.704 C 107.200 209.495,107.560 208.998,108.000 208.600 C 108.440 208.202,108.800 207.677,108.800 207.434 C 108.800 207.191,109.178 206.757,109.639 206.469 C 110.100 206.180,110.372 205.839,110.242 205.709 C 109.952 205.419,110.757 204.400,111.276 204.400 C 111.484 204.400,111.528 204.797,111.374 205.281 C 111.101 206.143,111.111 206.146,111.844 205.413 C 112.372 204.885,112.447 204.616,112.096 204.499 C 111.420 204.273,111.471 203.405,112.196 202.804 C 112.523 202.532,112.705 202.170,112.600 202.000 C 112.360 201.611,113.535 200.602,113.855 200.922 C 113.985 201.052,113.696 201.797,113.213 202.579 C 112.528 203.687,112.474 203.946,112.967 203.757 C 113.315 203.624,113.600 203.277,113.600 202.986 C 113.600 202.695,113.892 202.165,114.249 201.808 C 114.847 201.210,114.844 201.121,114.213 200.659 C 113.589 200.203,113.584 200.111,114.164 199.630 C 114.514 199.340,114.800 198.920,114.800 198.698 C 114.800 198.476,115.188 197.958,115.661 197.547 C 116.135 197.136,116.373 196.800,116.191 196.800 C 116.009 196.800,116.223 196.395,116.666 195.900 C 117.108 195.405,117.862 194.345,118.340 193.545 C 119.727 191.224,122.183 190.451,121.481 192.556 C 121.401 192.796,121.755 193.322,122.268 193.725 C 123.288 194.528,123.483 195.428,122.700 195.719 C 122.340 195.852,122.408 196.113,122.943 196.652 C 123.668 197.382,123.679 197.379,123.416 196.500 C 123.095 195.430,123.898 195.243,124.273 196.300 C 124.410 196.685,124.789 197.312,125.116 197.692 C 125.625 198.286,125.631 198.486,125.155 199.092 C 124.663 199.720,124.672 199.744,125.235 199.305 C 125.890 198.795,127.937 200.330,127.365 200.902 C 127.231 201.035,127.500 201.380,127.961 201.669 C 128.422 201.957,128.800 202.329,128.800 202.496 C 128.800 203.009,128.091 202.834,127.410 202.152 C 127.053 201.796,126.665 201.601,126.548 201.719 C 126.194 202.073,127.996 203.650,128.440 203.375 C 128.877 203.105,130.400 204.279,130.400 204.886 C 130.400 205.199,131.528 206.822,133.800 209.781 C 134.525 210.725,134.571 211.476,133.917 211.694 C 133.592 211.803,133.703 212.144,134.257 212.738 C 134.709 213.224,135.331 213.533,135.640 213.425 C 136.320 213.186,138.982 216.640,138.397 217.002 C 138.178 217.137,138.000 217.076,138.000 216.866 C 138.000 216.657,137.739 216.386,137.420 216.263 C 137.033 216.115,136.915 216.233,137.063 216.620 C 137.186 216.939,137.446 217.200,137.643 217.200 C 137.839 217.200,138.000 217.476,138.000 217.813 C 138.000 218.149,138.269 218.528,138.598 218.654 C 138.926 218.781,139.096 219.045,138.974 219.242 C 138.852 219.439,138.943 219.600,139.176 219.600 C 139.781 219.600,139.701 219.175,138.938 218.331 C 138.574 217.929,138.439 217.603,138.638 217.606 C 140.009 217.629,142.211 221.307,141.100 221.719 C 140.740 221.852,140.808 222.113,141.343 222.652 C 142.068 223.382,142.079 223.377,141.801 222.453 C 141.589 221.748,141.655 221.553,142.058 221.693 C 142.356 221.796,142.586 222.267,142.568 222.739 C 142.551 223.210,142.626 223.507,142.736 223.397 C 142.999 223.135,144.400 224.413,144.400 224.915 C 144.400 225.130,144.777 225.633,145.237 226.032 C 145.697 226.431,145.948 226.960,145.795 227.208 C 145.610 227.507,145.321 227.379,144.936 226.829 C 144.324 225.956,143.600 225.723,143.600 226.400 C 143.600 226.620,143.870 226.800,144.200 226.800 C 144.530 226.800,144.800 227.055,144.800 227.368 C 144.800 227.844,146.706 227.943,156.645 227.982 C 169.447 228.033,169.550 228.016,169.587 225.857 C 169.596 225.364,169.801 225.192,170.200 225.345 C 170.866 225.600,171.030 224.990,170.400 224.600 C 170.180 224.464,170.000 224.003,170.000 223.576 C 170.000 223.149,170.180 222.800,170.400 222.800 C 170.620 222.800,170.800 222.980,170.800 223.200 C 170.800 223.420,170.980 223.600,171.200 223.600 C 171.420 223.600,171.600 223.330,171.600 223.000 C 171.600 222.670,171.439 222.400,171.243 222.400 C 170.661 222.400,170.338 221.102,170.804 220.636 C 171.110 220.330,171.342 220.378,171.611 220.803 C 171.818 221.132,171.991 221.263,171.994 221.095 C 171.997 220.927,171.784 220.443,171.519 220.019 C 171.141 219.413,171.151 219.040,171.566 218.263 C 171.857 217.720,171.980 217.092,171.841 216.866 C 171.701 216.640,171.759 216.349,171.969 216.219 C 172.179 216.089,172.536 216.302,172.763 216.692 C 173.139 217.336,173.177 217.339,173.188 216.724 C 173.195 216.352,173.020 215.936,172.800 215.800 C 172.580 215.664,172.400 215.203,172.400 214.776 C 172.400 214.349,172.580 214.000,172.800 214.000 C 173.020 214.000,173.200 214.180,173.200 214.400 C 173.200 214.620,173.380 214.800,173.600 214.800 C 173.820 214.800,174.000 214.530,174.000 214.200 C 174.000 213.870,173.839 213.600,173.643 213.600 C 173.072 213.600,172.734 212.306,173.187 211.853 C 173.414 211.626,173.600 211.037,173.600 210.544 C 173.600 210.051,173.787 209.531,174.016 209.390 C 174.245 209.248,174.328 208.803,174.200 208.400 C 173.885 207.409,174.648 207.006,175.163 207.892 C 175.395 208.290,175.581 208.379,175.588 208.095 C 175.595 207.817,175.392 207.255,175.137 206.848 C 174.861 206.406,174.805 205.801,174.999 205.353 C 175.298 204.659,175.337 204.655,175.491 205.300 C 175.690 206.131,176.400 206.243,176.400 205.443 C 176.400 205.136,176.130 204.782,175.800 204.655 C 175.137 204.401,174.964 202.800,175.600 202.800 C 175.820 202.800,176.000 202.260,176.000 201.600 C 176.000 200.940,176.183 200.400,176.408 200.400 C 176.649 200.400,176.707 199.967,176.549 199.338 C 176.313 198.397,176.380 198.301,177.141 198.500 C 177.613 198.624,178.000 198.562,178.000 198.363 C 178.000 198.163,177.820 198.000,177.600 198.000 C 177.380 198.000,177.200 197.460,177.200 196.800 C 177.200 196.140,177.380 195.600,177.600 195.600 C 177.820 195.600,178.000 195.792,178.000 196.027 C 178.000 196.272,178.341 196.346,178.800 196.200 C 179.673 195.923,179.859 196.381,179.157 197.083 C 178.834 197.406,178.897 197.508,179.391 197.463 C 180.170 197.391,186.179 208.556,185.839 209.442 C 185.721 209.750,185.854 209.877,186.168 209.757 C 186.479 209.637,186.794 209.932,186.937 210.477 C 187.071 210.985,187.004 211.460,186.790 211.533 C 186.575 211.607,186.400 211.854,186.400 212.082 C 186.400 212.330,186.646 212.294,187.010 211.992 C 187.345 211.714,187.667 211.557,187.726 211.643 C 187.785 211.729,188.588 213.330,189.512 215.200 C 191.739 219.709,193.313 222.538,193.784 222.876 C 194.013 223.040,193.907 223.444,193.521 223.876 C 192.980 224.482,192.963 224.681,193.416 225.096 C 193.715 225.370,194.058 225.430,194.181 225.230 C 194.304 225.031,194.179 224.788,193.902 224.689 C 193.610 224.585,193.548 224.361,193.755 224.155 C 193.961 223.948,194.188 224.020,194.297 224.326 C 194.610 225.206,197.623 228.000,198.259 228.000 C 198.675 228.000,198.787 228.270,198.631 228.900 C 198.508 229.395,198.511 229.575,198.637 229.300 C 198.909 228.708,200.800 228.620,200.800 229.200 C 200.800 229.420,200.620 229.600,200.400 229.600 C 200.180 229.600,200.000 229.768,200.000 229.973 C 200.000 230.179,200.534 230.331,201.186 230.313 C 201.839 230.294,202.278 230.126,202.163 229.940 C 202.047 229.753,202.683 229.600,203.576 229.600 C 204.469 229.600,205.200 229.742,205.200 229.915 C 205.200 230.369,206.741 230.419,207.016 229.975 C 207.143 229.769,207.057 229.600,206.824 229.600 C 206.591 229.600,206.400 229.420,206.400 229.200 C 206.400 228.980,206.835 228.800,207.367 228.800 C 207.898 228.800,208.427 228.575,208.542 228.300 C 208.690 227.944,208.928 228.022,209.369 228.568 C 210.046 229.408,210.673 229.089,212.450 227.000 C 213.597 225.653,212.855 225.761,211.612 227.123 C 210.567 228.267,209.600 228.775,209.600 228.180 C 209.600 227.623,212.417 225.139,212.876 225.292 C 213.399 225.466,214.400 224.716,214.400 224.149 C 214.400 223.979,214.184 224.056,213.920 224.320 C 213.656 224.584,213.284 224.800,213.093 224.800 C 212.713 224.800,213.133 223.122,213.594 222.800 C 213.751 222.690,214.090 222.202,214.346 221.715 C 214.640 221.157,215.040 220.917,215.430 221.067 C 215.840 221.224,216.123 221.017,216.271 220.452 C 216.393 219.983,216.652 219.600,216.847 219.600 C 217.041 219.600,217.200 219.420,217.200 219.200 C 217.200 218.378,216.406 218.838,216.164 219.800 C 215.929 220.736,215.200 221.226,215.200 220.448 C 215.200 219.599,218.725 213.395,219.235 213.346 C 219.546 213.317,220.011 213.272,220.268 213.246 C 220.526 213.221,220.855 212.660,221.000 212.000 C 221.145 211.340,221.429 210.800,221.632 210.800 C 221.834 210.800,222.000 210.620,222.000 210.400 C 222.000 209.578,221.206 210.038,220.964 211.000 C 220.717 211.986,220.366 212.233,219.890 211.757 C 219.622 211.488,220.371 209.968,221.000 209.506 C 221.220 209.344,221.253 209.209,221.073 209.206 C 220.893 209.203,221.073 208.705,221.473 208.100 C 221.873 207.495,222.634 206.137,223.165 205.082 C 223.761 203.897,224.330 203.241,224.652 203.365 C 224.939 203.475,225.281 203.393,225.411 203.183 C 225.541 202.972,225.367 202.800,225.024 202.800 C 224.035 202.800,224.300 202.004,225.300 201.968 C 225.795 201.951,225.975 201.846,225.700 201.735 C 224.867 201.399,225.141 200.727,226.000 201.000 C 226.459 201.146,226.800 201.072,226.800 200.827 C 226.800 200.592,226.530 200.400,226.200 200.400 C 225.870 200.400,225.600 200.220,225.600 200.000 C 225.600 199.780,226.005 199.597,226.500 199.594 C 227.245 199.589,227.297 199.515,226.800 199.163 C 226.371 198.860,226.336 198.683,226.678 198.544 C 226.940 198.436,227.045 198.061,226.910 197.710 C 226.718 197.208,226.856 197.121,227.555 197.304 C 228.206 197.474,228.341 197.411,228.058 197.069 C 227.541 196.443,227.940 194.509,228.641 194.239 C 229.322 193.978,229.381 194.859,228.727 195.513 C 228.466 195.774,228.401 196.125,228.581 196.293 C 228.762 196.462,228.990 196.375,229.088 196.100 C 229.186 195.825,229.432 195.600,229.633 195.600 C 230.130 195.600,230.101 197.490,229.600 197.800 C 229.380 197.936,229.200 198.239,229.200 198.473 C 229.200 198.741,229.422 198.714,229.800 198.400 C 230.438 197.870,230.577 198.161,230.421 199.700 C 230.382 200.085,230.541 200.400,230.775 200.400 C 231.314 200.400,231.334 201.870,230.800 202.200 C 230.580 202.336,230.400 202.639,230.400 202.873 C 230.400 203.142,230.618 203.117,230.995 202.804 C 231.907 202.047,232.240 203.374,231.444 204.589 C 230.696 205.731,230.649 206.000,231.200 206.000 C 231.420 206.000,231.600 205.719,231.600 205.376 C 231.600 205.033,231.780 204.864,232.000 205.000 C 232.220 205.136,232.400 205.597,232.400 206.024 C 232.400 206.451,232.220 206.800,232.000 206.800 C 231.780 206.800,231.600 206.974,231.600 207.187 C 231.600 207.401,231.870 207.471,232.200 207.345 C 232.636 207.177,232.800 207.391,232.800 208.124 C 232.800 208.679,233.025 209.210,233.300 209.304 C 233.688 209.437,233.698 209.751,233.346 210.707 C 232.972 211.722,232.990 211.902,233.446 211.727 C 233.823 211.582,234.000 211.821,234.000 212.477 C 234.000 213.007,234.220 213.660,234.490 213.930 C 234.877 214.317,234.877 214.585,234.490 215.205 C 233.850 216.230,233.868 216.322,234.700 216.256 C 235.180 216.217,235.359 216.438,235.269 216.957 C 235.197 217.374,235.321 217.827,235.543 217.965 C 235.766 218.102,236.076 219.184,236.233 220.368 C 236.443 221.947,236.397 222.445,236.060 222.237 C 235.780 222.064,235.600 222.228,235.600 222.656 C 235.600 223.204,235.707 223.253,236.080 222.880 C 236.344 222.616,236.704 222.400,236.880 222.400 C 237.432 222.400,237.228 223.879,236.604 224.396 C 236.277 224.668,236.114 225.061,236.243 225.269 C 236.372 225.477,236.724 225.322,237.026 224.924 C 237.548 224.235,237.575 224.240,237.587 225.020 C 237.594 225.471,237.825 226.322,238.100 226.910 L 238.600 227.979 273.600 228.090 C 292.850 228.150,308.660 228.065,308.733 227.900 C 308.949 227.414,311.797 227.557,312.320 228.080 C 312.693 228.453,312.800 228.364,312.800 227.680 C 312.800 226.595,314.173 226.466,314.750 227.497 C 314.965 227.880,315.269 228.064,315.427 227.906 C 315.585 227.748,315.486 227.345,315.208 227.010 C 314.792 226.508,314.811 226.400,315.317 226.400 C 316.431 226.400,320.976 223.865,322.273 222.520 C 322.973 221.794,323.746 221.200,323.991 221.200 C 324.235 221.200,324.396 220.975,324.348 220.700 C 324.278 220.295,325.007 218.309,325.471 217.643 C 325.531 217.557,325.855 217.714,326.190 217.992 C 326.607 218.338,326.800 218.356,326.800 218.049 C 326.800 217.802,326.620 217.600,326.400 217.600 C 326.180 217.600,326.000 217.330,326.000 217.000 C 326.000 216.670,326.180 216.400,326.400 216.400 C 326.620 216.400,326.800 216.580,326.800 216.800 C 326.800 217.020,326.980 217.200,327.200 217.200 C 327.420 217.200,327.600 216.840,327.600 216.400 C 327.600 215.960,327.386 215.645,327.124 215.700 C 326.560 215.818,326.230 214.621,326.577 213.715 C 326.792 213.155,326.892 213.169,327.398 213.839 C 327.955 214.574,327.975 214.569,327.987 213.700 C 327.994 213.205,327.820 212.800,327.600 212.800 C 327.075 212.800,327.075 207.325,327.600 207.000 C 328.305 206.564,328.027 206.068,327.200 206.284 C 326.157 206.557,326.079 204.925,327.100 204.171 C 327.661 203.757,327.701 203.553,327.300 203.147 C 326.897 202.739,326.800 202.772,326.800 203.320 C 326.800 204.309,326.133 204.153,325.858 203.100 C 325.729 202.605,325.663 202.187,325.711 202.171 C 325.760 202.156,325.485 201.828,325.100 201.443 C 324.715 201.058,324.398 200.531,324.395 200.271 C 324.390 199.770,320.252 196.800,319.558 196.800 C 319.318 196.800,319.258 196.424,319.414 195.900 C 319.678 195.016,319.672 195.015,319.068 195.800 C 318.576 196.441,318.353 196.501,317.947 196.100 C 317.668 195.825,317.116 195.600,316.720 195.600 C 316.324 195.600,316.000 195.400,316.000 195.157 C 316.000 194.891,315.623 194.808,315.059 194.949 C 313.914 195.237,313.450 194.863,314.052 194.137 C 314.393 193.727,314.350 193.600,313.873 193.600 C 313.529 193.600,313.136 193.780,313.000 194.000 C 312.480 194.841,307.884 194.488,308.110 193.624 C 308.400 192.512,275.090 192.330,273.404 193.434 C 270.453 195.368,267.483 190.687,269.926 187.952 L 271.053 186.691 277.726 186.770 C 282.072 186.821,284.400 186.705,284.400 186.438 C 284.400 186.212,284.940 185.413,285.600 184.661 C 286.260 183.909,286.800 183.114,286.800 182.893 C 286.800 182.673,287.266 182.187,287.835 181.814 C 288.404 181.441,288.768 181.035,288.644 180.910 C 288.439 180.705,289.092 179.806,291.671 176.743 C 292.161 176.162,292.755 175.761,292.992 175.852 C 293.577 176.077,295.075 174.942,294.695 174.562 C 294.528 174.395,294.138 174.605,293.829 175.029 C 293.519 175.452,293.132 175.665,292.968 175.502 C 292.434 174.967,294.071 173.569,294.917 173.837 C 295.401 173.991,295.604 173.929,295.448 173.677 C 295.309 173.452,295.421 173.165,295.698 173.038 C 295.974 172.911,295.795 172.908,295.300 173.031 C 294.185 173.307,294.132 172.769,295.200 172.000 C 295.640 171.683,296.000 171.328,296.000 171.212 C 295.999 171.095,290.886 171.000,284.637 171.000 C 278.388 171.000,273.466 171.118,273.699 171.262 C 273.932 171.405,272.895 171.655,271.395 171.815 C 269.018 172.070,268.600 172.014,268.138 171.383 C 267.847 170.984,267.471 170.805,267.304 170.984 C 267.137 171.163,267.225 171.390,267.500 171.488 C 268.444 171.825,267.999 172.400,266.795 172.400 C 266.132 172.400,265.221 172.625,264.770 172.900 C 264.074 173.325,263.866 173.285,263.380 172.629 C 263.065 172.205,262.671 172.005,262.504 172.184 C 262.337 172.363,262.425 172.590,262.700 172.688 C 262.975 172.786,263.200 173.032,263.200 173.233 C 263.200 173.787,261.700 173.673,261.437 173.100 C 261.311 172.825,261.315 173.026,261.446 173.547 C 261.617 174.229,261.535 174.445,261.151 174.317 C 260.857 174.219,260.274 174.459,259.855 174.850 C 259.435 175.240,258.522 175.831,257.825 176.161 C 256.520 176.780,255.770 177.535,254.900 179.100 C 254.625 179.595,254.220 180.315,254.000 180.700 C 253.780 181.085,253.417 181.915,253.194 182.543 C 252.855 183.495,252.687 183.604,252.193 183.194 C 251.780 182.852,251.600 182.839,251.600 183.151 C 251.600 183.398,251.780 183.600,252.000 183.600 C 252.432 183.600,252.561 186.105,252.150 186.517 C 251.811 186.856,251.853 190.828,252.206 191.705 C 252.362 192.093,252.412 192.937,252.318 193.581 C 252.215 194.276,252.319 194.721,252.573 194.676 C 252.808 194.634,252.975 194.915,252.944 195.300 C 252.914 195.685,253.049 196.000,253.244 196.000 C 253.440 196.000,253.600 196.255,253.600 196.567 C 253.600 196.878,253.812 197.204,254.071 197.290 C 254.603 197.468,254.168 198.400,253.553 198.400 C 253.333 198.400,253.264 198.220,253.400 198.000 C 253.536 197.780,253.442 197.600,253.190 197.600 C 252.939 197.600,252.813 197.825,252.911 198.100 C 253.008 198.375,253.445 198.562,253.881 198.516 C 254.745 198.424,257.530 201.004,257.067 201.467 C 256.913 201.620,256.161 201.137,255.394 200.394 C 254.627 199.651,254.000 199.195,254.000 199.381 C 254.000 200.143,256.879 202.520,257.190 202.016 C 257.378 201.712,257.836 201.621,258.350 201.784 C 259.410 202.121,259.484 202.968,258.430 202.692 C 257.890 202.551,257.723 202.656,257.873 203.045 C 257.990 203.350,258.232 203.600,258.410 203.600 C 258.589 203.600,259.064 203.707,259.467 203.838 C 260.025 204.019,260.068 203.982,259.649 203.682 C 258.716 203.018,259.477 202.418,260.593 202.938 C 261.323 203.278,261.521 203.606,261.340 204.181 C 261.103 204.936,261.119 204.938,261.820 204.237 C 262.424 203.634,262.618 203.604,262.973 204.059 C 263.208 204.360,263.815 204.546,264.322 204.472 C 264.829 204.399,265.487 204.540,265.784 204.787 C 266.084 205.035,266.784 205.119,267.361 204.974 C 268.926 204.581,269.837 205.032,269.151 205.860 C 268.662 206.448,268.762 206.481,270.206 206.204 C 272.811 205.706,307.600 205.501,307.600 205.984 C 307.600 206.213,307.420 206.400,307.200 206.400 C 306.980 206.400,306.800 206.608,306.800 206.862 C 306.800 207.139,307.091 207.061,307.528 206.665 C 308.207 206.051,308.315 206.061,309.128 206.819 C 310.789 208.366,310.029 212.800,308.102 212.800 C 307.862 212.800,307.607 212.935,307.533 213.100 C 307.180 213.894,251.200 213.212,251.200 212.413 C 251.200 211.992,251.380 211.536,251.600 211.400 C 251.820 211.264,251.979 210.848,251.954 210.476 C 251.913 209.889,251.883 209.895,251.720 210.522 C 251.617 210.919,251.323 211.169,251.066 211.078 C 250.522 210.884,250.641 209.063,251.212 208.867 C 251.724 208.691,251.714 207.600,251.200 207.600 C 250.980 207.600,250.800 207.870,250.800 208.200 C 250.800 209.584,250.069 208.654,249.813 206.944 C 249.611 205.603,249.679 204.999,250.056 204.766 C 250.342 204.588,250.422 204.299,250.234 204.122 C 250.045 203.945,249.810 204.025,249.712 204.300 C 249.614 204.575,249.368 204.800,249.167 204.800 C 248.671 204.800,248.699 203.310,249.200 203.000 C 249.420 202.864,249.586 202.538,249.568 202.276 C 249.546 201.933,249.481 201.939,249.335 202.300 C 248.988 203.160,248.400 202.846,248.400 201.800 C 248.400 201.250,248.580 200.800,248.800 200.800 C 249.020 200.800,249.200 200.608,249.200 200.373 C 249.200 200.133,248.861 200.054,248.427 200.191 C 247.763 200.402,247.616 200.180,247.382 198.618 C 247.232 197.618,246.938 196.800,246.728 196.800 C 246.518 196.800,246.404 196.305,246.473 195.700 C 246.543 195.095,246.795 194.635,247.033 194.678 C 247.272 194.721,247.467 194.496,247.467 194.178 C 247.467 193.860,247.317 193.600,247.133 193.600 C 246.950 193.600,246.800 193.780,246.800 194.000 C 246.800 194.220,246.620 194.400,246.400 194.400 C 246.180 194.400,246.000 193.950,246.000 193.400 C 246.000 192.850,246.180 192.400,246.400 192.400 C 246.620 192.400,246.800 192.237,246.800 192.037 C 246.800 191.838,246.412 191.776,245.937 191.901 C 245.209 192.091,245.109 191.991,245.299 191.263 C 245.424 190.788,245.362 190.400,245.163 190.400 C 244.963 190.400,244.800 189.950,244.800 189.400 C 244.800 188.850,244.980 188.400,245.200 188.400 C 245.420 188.400,245.600 188.184,245.600 187.920 C 245.600 187.547,245.493 187.547,245.120 187.920 C 244.295 188.745,243.890 188.448,244.140 187.200 C 244.275 186.523,244.210 186.000,243.990 186.000 C 243.417 186.000,243.514 184.105,244.100 183.845 C 244.375 183.723,244.247 183.663,243.815 183.712 C 243.341 183.765,242.972 183.522,242.885 183.100 C 242.797 182.669,242.983 182.400,243.371 182.400 C 243.717 182.400,244.000 182.237,244.000 182.037 C 244.000 181.838,243.640 181.769,243.200 181.884 C 242.605 182.040,242.400 181.896,242.400 181.327 C 242.400 180.905,242.202 180.362,241.960 180.120 C 241.475 179.635,241.835 178.000,242.427 178.000 C 242.632 178.000,242.800 177.730,242.800 177.400 C 242.800 177.070,242.620 176.800,242.400 176.800 C 242.180 176.800,242.000 177.070,242.000 177.400 C 242.000 177.730,241.820 178.000,241.600 178.000 C 241.380 178.000,241.200 177.662,241.200 177.249 C 241.200 176.836,240.930 176.274,240.600 176.000 C 240.270 175.726,240.000 175.288,240.000 175.026 C 240.000 174.764,239.450 174.023,238.778 173.379 C 238.031 172.663,237.628 171.935,237.741 171.504 C 237.842 171.116,237.778 170.890,237.597 171.002 C 237.416 171.114,237.163 170.979,237.034 170.702 C 236.847 170.301,236.753 170.301,236.567 170.700 C 236.185 171.517,234.780 171.329,235.071 170.500 C 235.272 169.929,235.219 169.892,234.779 170.300 C 234.461 170.595,233.158 170.800,231.600 170.800 C 230.023 170.800,228.757 170.599,228.456 170.300 C 228.053 169.899,227.998 169.919,228.181 170.400 C 228.331 170.797,228.024 171.171,227.276 171.502 C 226.120 172.014,221.993 175.708,221.936 176.283 C 221.859 177.051,221.214 178.266,220.462 179.057 C 220.015 179.529,219.767 180.034,219.913 180.179 C 220.058 180.325,220.002 180.569,219.788 180.722 C 219.575 180.875,218.954 181.855,218.408 182.900 C 217.509 184.624,216.400 185.618,216.937 184.220 C 217.085 183.833,216.967 183.715,216.580 183.863 C 215.923 184.115,215.791 184.800,216.400 184.800 C 216.620 184.800,216.800 185.005,216.800 185.256 C 216.800 185.961,215.099 189.200,214.729 189.200 C 214.214 189.200,214.344 188.489,214.900 188.265 C 215.175 188.154,214.995 188.049,214.500 188.032 C 214.005 188.014,213.600 188.165,213.600 188.367 C 213.600 188.569,213.493 189.064,213.362 189.467 C 213.181 190.025,213.218 190.068,213.518 189.649 C 213.734 189.346,214.107 189.219,214.347 189.367 C 214.801 189.648,214.332 190.791,213.300 191.913 C 213.025 192.212,212.800 192.644,212.800 192.871 C 212.800 193.099,212.526 193.180,212.191 193.052 C 211.694 192.861,211.659 192.964,212.005 193.609 C 212.238 194.044,212.287 194.402,212.114 194.405 C 211.941 194.407,211.453 195.134,211.028 196.020 C 210.476 197.172,210.078 197.563,209.628 197.392 C 209.137 197.205,209.105 197.258,209.483 197.639 C 209.860 198.019,209.788 198.374,209.155 199.263 C 208.710 199.888,208.493 200.403,208.673 200.406 C 208.853 200.409,208.816 200.544,208.592 200.706 C 208.367 200.868,207.962 201.505,207.690 202.123 C 207.419 202.740,207.019 203.136,206.803 203.002 C 206.572 202.859,206.515 203.035,206.665 203.425 C 206.868 203.954,206.752 204.039,206.107 203.834 C 205.054 203.500,203.224 206.611,204.036 207.357 C 204.401 207.693,204.458 207.631,204.271 207.100 C 204.136 206.715,204.199 206.400,204.413 206.400 C 204.626 206.400,204.800 206.130,204.800 205.800 C 204.800 205.470,204.999 205.200,205.243 205.200 C 205.486 205.200,205.582 204.930,205.455 204.600 C 205.227 204.004,205.644 203.777,206.110 204.243 C 206.364 204.498,205.641 206.023,205.066 206.445 C 204.882 206.579,204.731 206.800,204.731 206.936 C 204.728 207.801,204.229 208.800,203.800 208.800 C 203.338 208.800,202.653 207.421,202.757 206.700 C 202.781 206.535,202.640 206.400,202.443 206.400 C 202.247 206.400,201.963 205.907,201.812 205.304 C 201.660 204.701,201.327 204.079,201.072 203.921 C 200.722 203.705,200.730 203.510,201.103 203.137 C 201.499 202.741,201.600 202.744,201.600 203.149 C 201.600 203.428,201.894 203.951,202.253 204.310 C 202.856 204.914,202.883 204.890,202.600 204.000 C 202.259 202.926,201.200 201.694,201.200 202.371 C 201.200 202.607,201.020 202.800,200.800 202.800 C 200.580 202.800,200.400 202.545,200.400 202.233 C 200.400 201.922,200.240 201.607,200.044 201.533 C 199.440 201.307,197.204 196.845,197.579 196.613 C 197.773 196.493,198.012 196.621,198.111 196.898 C 198.210 197.174,198.445 197.255,198.634 197.078 C 198.822 196.901,198.712 196.589,198.388 196.384 C 198.065 196.180,197.957 196.009,198.149 196.006 C 198.341 196.003,198.274 195.730,198.000 195.400 C 197.726 195.070,197.299 194.814,197.051 194.832 C 196.768 194.851,196.786 194.938,197.100 195.065 C 197.375 195.176,197.600 195.522,197.600 195.833 C 197.600 196.856,196.940 196.427,196.163 194.900 C 195.743 194.075,195.242 193.285,195.049 193.145 C 194.856 193.004,194.838 192.662,195.010 192.384 C 195.247 192.001,195.452 192.057,195.861 192.616 C 196.157 193.021,196.400 193.175,196.400 192.956 C 196.400 192.738,196.184 192.344,195.920 192.080 C 195.656 191.816,195.573 191.600,195.736 191.600 C 195.898 191.600,195.799 191.349,195.516 191.042 C 195.232 190.735,194.846 190.578,194.657 190.692 C 194.469 190.806,194.554 191.048,194.846 191.228 C 195.138 191.409,195.243 191.690,195.079 191.854 C 194.786 192.148,193.839 191.031,192.938 189.329 C 192.398 188.307,192.693 187.813,193.463 188.452 C 193.858 188.780,194.000 188.779,194.000 188.449 C 194.000 188.202,193.790 188.000,193.533 188.000 C 193.277 188.000,193.185 187.882,193.330 187.737 C 193.737 187.330,192.807 186.422,192.216 186.649 C 191.927 186.760,191.298 186.299,190.818 185.625 C 190.338 184.951,190.044 184.400,190.164 184.400 C 190.284 184.400,189.846 183.555,189.191 182.522 C 187.893 180.475,187.731 179.763,188.500 179.488 C 188.775 179.390,188.855 179.155,188.678 178.966 C 188.501 178.778,188.196 178.883,188.000 179.200 C 187.804 179.517,187.518 179.651,187.365 179.498 C 187.211 179.345,187.295 178.968,187.550 178.660 C 188.037 178.073,187.769 176.800,187.157 176.800 C 186.618 176.800,186.729 177.508,187.300 177.712 C 187.575 177.810,187.650 178.050,187.466 178.245 C 187.080 178.654,185.600 176.996,185.600 176.156 C 185.600 175.850,185.432 175.600,185.227 175.600 C 185.022 175.600,184.728 175.203,184.574 174.719 C 184.290 173.825,183.457 172.800,183.014 172.800 C 182.302 172.800,180.797 171.449,181.219 171.188 C 181.555 170.980,181.562 170.824,181.243 170.626 C 180.999 170.476,180.800 170.543,180.800 170.776 C 180.800 171.009,180.530 171.200,180.200 171.200 C 179.870 171.200,179.600 170.894,179.600 170.520 C 179.600 169.991,179.493 169.947,179.120 170.320 C 178.539 170.901,173.751 170.968,173.400 170.400 C 173.264 170.180,172.859 170.000,172.500 170.000 C 171.952 170.000,171.972 170.095,172.624 170.587 C 173.385 171.163,173.383 171.175,172.549 171.187 C 172.081 171.194,171.474 171.470,171.200 171.800 C 170.926 172.130,170.488 172.400,170.226 172.400 C 169.964 172.400,169.232 172.940,168.600 173.600 C 167.968 174.260,167.586 174.800,167.752 174.800 C 167.919 174.800,167.702 175.295,167.271 175.900 C 166.840 176.505,166.458 177.180,166.421 177.400 C 166.383 177.620,166.094 177.775,165.777 177.744 C 165.459 177.714,165.200 177.849,165.200 178.044 C 165.200 178.240,165.380 178.400,165.600 178.400 C 166.043 178.400,166.150 179.717,165.740 180.127 C 165.596 180.270,165.217 180.075,164.897 179.694 C 164.567 179.299,164.611 179.496,164.999 180.149 C 165.514 181.014,165.583 181.508,165.278 182.149 C 165.055 182.617,164.757 183.355,164.615 183.789 C 164.417 184.393,164.280 184.453,164.028 184.046 C 163.826 183.718,163.605 183.668,163.452 183.915 C 163.316 184.136,163.474 184.419,163.802 184.546 C 164.131 184.672,164.400 185.051,164.400 185.387 C 164.400 186.121,163.351 186.210,163.065 185.500 C 162.944 185.201,162.850 185.282,162.832 185.700 C 162.814 186.085,162.980 186.400,163.200 186.400 C 163.420 186.400,163.600 186.850,163.600 187.400 C 163.600 187.950,163.420 188.400,163.200 188.400 C 162.980 188.400,162.800 188.209,162.800 187.976 C 162.800 187.743,162.619 187.665,162.397 187.802 C 162.147 187.956,162.223 188.280,162.597 188.654 C 163.298 189.355,163.363 189.852,162.800 190.200 C 162.580 190.336,162.400 190.887,162.400 191.424 C 162.400 191.961,162.220 192.400,162.000 192.400 C 161.780 192.400,161.600 192.220,161.600 192.000 C 161.600 191.780,161.392 191.600,161.138 191.600 C 160.873 191.600,160.979 191.935,161.387 192.385 C 162.270 193.361,161.928 194.770,160.995 193.996 C 160.582 193.653,160.400 193.639,160.400 193.951 C 160.400 194.198,160.580 194.400,160.800 194.400 C 161.020 194.400,161.200 194.850,161.200 195.400 C 161.200 195.950,161.020 196.400,160.800 196.400 C 160.580 196.400,160.400 196.130,160.400 195.800 C 160.400 195.470,160.199 195.200,159.954 195.200 C 159.680 195.200,159.757 195.580,160.154 196.186 C 161.222 197.816,160.868 199.108,159.680 197.920 C 159.307 197.547,159.200 197.547,159.200 197.920 C 159.200 198.184,159.380 198.400,159.600 198.400 C 159.820 198.400,160.000 198.850,160.000 199.400 C 160.000 199.950,159.826 200.400,159.613 200.400 C 159.399 200.400,159.325 200.661,159.448 200.981 C 159.840 202.002,159.146 202.615,158.539 201.784 C 158.057 201.125,158.000 201.118,158.000 201.724 C 158.000 202.096,158.180 202.400,158.400 202.400 C 158.620 202.400,158.800 202.850,158.800 203.400 C 158.800 204.441,158.199 204.770,157.888 203.900 C 157.790 203.625,157.551 203.549,157.358 203.730 C 157.162 203.915,157.314 204.232,157.703 204.450 C 158.442 204.864,158.676 206.400,158.000 206.400 C 157.780 206.400,157.600 206.850,157.600 207.400 C 157.600 207.950,157.420 208.400,157.200 208.400 C 156.980 208.400,156.800 208.209,156.800 207.976 C 156.800 207.743,156.597 207.678,156.349 207.832 C 156.040 208.022,156.103 208.226,156.549 208.475 C 156.907 208.676,157.200 209.191,157.200 209.620 C 157.200 210.518,156.789 210.616,156.031 209.900 C 155.595 209.488,155.581 209.554,155.951 210.274 C 156.617 211.569,156.499 211.813,155.600 211.000 C 154.694 210.180,154.560 209.347,155.296 209.101 C 155.647 208.984,155.572 208.715,155.044 208.187 C 154.311 207.454,154.301 207.457,154.574 208.319 C 154.910 209.377,154.104 209.547,153.715 208.500 C 153.571 208.115,152.767 206.978,151.927 205.974 C 150.239 203.956,150.104 203.600,151.024 203.600 C 151.367 203.600,151.548 203.761,151.426 203.958 C 151.304 204.155,151.474 204.419,151.802 204.546 C 152.530 204.825,152.548 204.643,151.900 203.528 C 151.117 202.180,150.051 201.194,149.806 201.590 C 149.684 201.788,149.900 202.128,150.288 202.345 C 150.676 202.562,150.886 202.848,150.754 202.979 C 150.345 203.388,149.330 202.798,148.857 201.878 C 148.236 200.669,147.495 199.537,146.900 198.888 C 146.310 198.245,146.247 197.600,146.773 197.600 C 146.978 197.600,147.260 197.960,147.400 198.400 C 147.640 199.157,148.407 199.543,148.394 198.900 C 148.380 198.204,147.616 197.468,146.851 197.411 C 145.887 197.340,144.327 196.043,144.625 195.560 C 144.738 195.376,144.464 194.997,144.016 194.717 C 143.567 194.437,143.200 194.009,143.200 193.766 C 143.200 193.523,142.840 192.998,142.400 192.600 C 141.960 192.202,141.600 191.699,141.600 191.482 C 141.600 191.265,141.303 190.871,140.939 190.605 C 140.565 190.331,140.407 189.913,140.575 189.641 C 140.787 189.298,141.091 189.413,141.636 190.041 C 142.056 190.526,142.400 190.728,142.400 190.490 C 142.400 189.827,141.186 188.762,140.743 189.036 C 140.254 189.338,138.800 188.067,138.800 187.338 C 138.800 187.042,138.632 186.800,138.427 186.800 C 138.222 186.800,137.938 186.434,137.796 185.987 C 137.654 185.540,137.147 184.762,136.669 184.257 C 134.493 181.960,134.280 181.549,134.929 180.899 C 135.468 180.360,135.451 180.207,134.771 179.477 C 134.352 179.027,133.908 178.759,133.785 178.881 C 133.662 179.004,133.862 179.405,134.229 179.771 C 134.595 180.138,134.768 180.565,134.613 180.719 C 134.334 180.997,133.562 180.176,132.400 178.365 C 130.986 176.161,127.326 172.714,125.521 171.886 C 124.340 171.344,123.667 170.803,123.786 170.491 C 123.934 170.105,123.796 170.081,123.217 170.391 C 122.797 170.616,121.349 170.800,120.000 170.800 C 118.651 170.800,117.203 170.616,116.783 170.391 C 116.166 170.061,116.063 170.099,116.252 170.591 M303.413 171.221 C 303.561 171.461,303.323 171.747,302.877 171.864 C 302.164 172.050,301.438 173.279,301.557 174.100 C 301.581 174.265,301.254 174.400,300.832 174.400 C 300.303 174.400,299.981 174.775,299.800 175.600 C 299.655 176.260,299.281 176.800,298.968 176.800 C 298.656 176.800,298.400 177.042,298.400 177.339 C 298.400 177.635,298.085 178.248,297.700 178.701 C 296.425 180.202,295.859 181.143,295.427 182.479 C 295.192 183.205,294.595 183.978,294.100 184.195 C 293.605 184.412,293.200 184.912,293.200 185.307 C 293.200 185.982,293.873 186.017,304.800 185.912 C 311.180 185.850,316.461 185.890,316.535 186.000 C 316.609 186.110,316.608 185.959,316.534 185.665 C 316.385 185.076,317.907 183.634,318.700 183.613 C 318.975 183.606,319.200 183.409,319.200 183.176 C 319.200 182.943,319.022 182.863,318.805 182.997 C 318.574 183.140,318.513 182.970,318.660 182.589 C 318.812 182.191,319.201 182.012,319.656 182.130 C 320.066 182.238,320.300 182.162,320.177 181.963 C 320.054 181.763,320.143 181.600,320.376 181.600 C 320.609 181.600,320.800 181.349,320.800 181.043 C 320.800 180.736,321.081 180.378,321.425 180.246 C 321.769 180.114,321.939 179.824,321.802 179.603 C 321.665 179.381,321.833 179.200,322.176 179.200 C 322.519 179.200,322.800 178.970,322.800 178.689 C 322.800 178.408,323.160 177.870,323.600 177.493 C 324.040 177.116,324.400 176.555,324.400 176.247 C 324.400 175.938,324.681 175.578,325.025 175.446 C 325.369 175.314,325.539 175.024,325.402 174.803 C 325.265 174.581,325.433 174.400,325.776 174.400 C 326.119 174.400,326.400 174.139,326.400 173.820 C 326.400 173.501,326.688 173.078,327.041 172.881 C 327.394 172.684,327.616 172.180,327.536 171.761 C 327.396 171.036,326.820 170.995,315.267 170.894 C 306.651 170.819,303.223 170.913,303.413 171.221 M111.467 171.867 C 110.981 172.353,111.190 172.779,111.800 172.545 C 112.130 172.418,112.400 172.154,112.400 171.957 C 112.400 171.538,111.849 171.484,111.467 171.867 M127.600 171.800 C 127.600 172.178,129.133 173.533,129.334 173.333 C 129.576 173.091,128.352 171.600,127.911 171.600 C 127.740 171.600,127.600 171.690,127.600 171.800 M168.248 172.210 C 167.267 173.190,167.472 173.750,168.471 172.820 C 168.950 172.374,169.241 171.908,169.119 171.785 C 168.996 171.662,168.604 171.853,168.248 172.210 M238.400 171.819 C 238.400 172.195,240.515 174.018,240.717 173.817 C 240.942 173.592,239.139 171.617,238.700 171.607 C 238.535 171.603,238.400 171.699,238.400 171.819 M223.771 172.304 C 223.865 172.398,223.319 173.022,222.558 173.691 C 221.796 174.359,221.261 174.994,221.368 175.102 C 221.476 175.209,222.290 174.585,223.178 173.715 C 224.142 172.770,224.552 172.133,224.196 172.133 C 223.868 172.133,223.677 172.210,223.771 172.304 M130.400 174.663 C 130.950 175.341,131.535 175.819,131.700 175.724 C 131.865 175.630,132.000 175.813,132.000 176.132 C 132.000 176.830,133.568 178.802,133.587 178.129 C 133.594 177.869,133.330 177.387,133.000 177.057 C 132.670 176.727,132.397 176.309,132.393 176.129 C 132.385 175.764,130.933 174.343,130.000 173.787 C 129.670 173.591,129.850 173.985,130.400 174.663 M108.232 175.222 C 107.809 175.648,107.586 176.119,107.736 176.269 C 107.990 176.523,109.600 175.096,109.600 174.617 C 109.600 174.190,108.987 174.461,108.232 175.222 M257.277 175.226 C 256.709 176.135,257.012 176.245,257.832 175.426 C 258.148 175.110,258.261 174.761,258.083 174.651 C 257.905 174.542,257.543 174.800,257.277 175.226 M291.986 177.548 C 290.786 178.877,289.109 181.200,289.348 181.200 C 289.759 181.200,291.200 179.844,291.200 179.457 C 291.200 179.256,291.650 178.675,292.200 178.165 C 292.750 177.655,293.200 177.140,293.200 177.019 C 293.200 176.606,292.600 176.867,291.986 177.548 M219.349 178.573 C 218.662 179.317,218.279 180.800,218.773 180.800 C 219.008 180.800,219.200 180.543,219.200 180.229 C 219.200 179.914,219.471 179.386,219.803 179.054 C 220.135 178.722,220.270 178.368,220.103 178.267 C 219.936 178.167,219.597 178.304,219.349 178.573 M102.643 183.433 C 102.267 184.411,102.349 184.508,103.000 183.857 C 103.680 183.177,103.767 182.800,103.243 182.800 C 103.046 182.800,102.776 183.085,102.643 183.433 M137.446 184.105 C 137.605 184.377,138.286 185.410,138.961 186.400 C 139.636 187.390,140.235 188.275,140.294 188.367 C 140.352 188.458,140.508 188.425,140.640 188.293 C 140.773 188.161,140.679 187.816,140.433 187.526 C 138.824 185.635,138.400 185.021,138.400 184.582 C 138.400 184.309,138.121 183.978,137.779 183.847 C 137.360 183.687,137.252 183.770,137.446 184.105 M285.867 185.267 C 285.463 185.707,285.223 186.157,285.333 186.267 C 285.533 186.467,287.200 184.978,287.200 184.600 C 287.200 184.183,286.573 184.497,285.867 185.267 M100.267 186.667 C 99.781 187.153,99.990 187.579,100.600 187.345 C 100.930 187.218,101.200 186.954,101.200 186.757 C 101.200 186.338,100.649 186.284,100.267 186.667 M270.700 188.032 C 270.315 188.256,270.000 188.605,270.000 188.807 C 270.000 189.350,271.102 188.831,271.357 188.169 C 271.612 187.503,271.610 187.502,270.700 188.032 M270.092 191.675 C 270.291 192.273,271.200 192.602,271.200 192.076 C 271.200 191.861,270.915 191.576,270.567 191.443 C 270.177 191.293,269.994 191.382,270.092 191.675 M145.080 194.836 C 145.945 196.308,146.800 197.110,146.800 196.449 C 146.800 196.202,146.623 196.000,146.408 196.000 C 146.192 196.000,145.906 195.563,145.772 195.029 C 145.637 194.495,145.265 193.957,144.944 193.834 C 144.486 193.658,144.515 193.873,145.080 194.836 M94.860 194.668 C 94.119 195.469,94.609 195.848,95.384 195.073 C 95.726 194.731,95.870 194.368,95.703 194.267 C 95.536 194.167,95.157 194.347,94.860 194.668 M179.200 195.249 C 179.200 195.442,178.949 195.600,178.643 195.600 C 178.042 195.600,177.504 194.629,177.891 194.243 C 178.173 193.960,179.200 194.750,179.200 195.249 M117.284 196.215 C 117.001 196.537,116.893 196.800,117.046 196.800 C 117.199 196.800,116.997 197.161,116.598 197.602 C 116.198 198.044,115.985 198.518,116.123 198.657 C 116.262 198.795,116.696 198.345,117.088 197.657 C 117.479 196.968,117.935 196.404,118.100 196.403 C 118.265 196.401,118.400 196.220,118.400 196.000 C 118.400 195.432,117.888 195.531,117.284 196.215 M123.810 197.583 C 123.645 197.851,123.707 198.267,123.948 198.508 C 124.563 199.123,124.952 198.600,124.492 197.779 C 124.212 197.279,124.031 197.227,123.810 197.583 M323.207 197.900 C 323.211 198.065,323.661 198.624,324.207 199.142 C 325.383 200.258,325.564 199.564,324.400 198.400 C 323.556 197.556,323.196 197.405,323.207 197.900 M91.867 198.667 C 91.484 199.049,91.538 199.600,91.957 199.600 C 92.154 199.600,92.418 199.330,92.545 199.000 C 92.779 198.390,92.353 198.181,91.867 198.667 M148.643 200.167 C 148.776 200.515,149.061 200.800,149.276 200.800 C 149.802 200.800,149.473 199.891,148.875 199.692 C 148.582 199.594,148.493 199.777,148.643 200.167 M199.867 200.267 C 199.741 200.392,199.908 200.765,200.238 201.095 C 200.568 201.425,200.941 201.592,201.067 201.467 C 201.192 201.341,201.025 200.968,200.695 200.638 C 200.365 200.308,199.992 200.141,199.867 200.267 M129.600 205.957 C 129.600 206.169,129.870 206.613,130.200 206.943 C 130.530 207.273,130.800 207.696,130.800 207.883 C 130.800 208.405,132.347 209.610,132.565 209.257 C 132.671 209.086,132.416 208.700,132.000 208.400 C 131.584 208.100,131.299 207.752,131.369 207.627 C 131.438 207.502,131.068 206.989,130.547 206.486 C 130.026 205.983,129.600 205.745,129.600 205.957 M85.443 208.233 C 85.067 209.211,85.149 209.308,85.800 208.657 C 86.480 207.977,86.567 207.600,86.043 207.600 C 85.846 207.600,85.576 207.885,85.443 208.233 M184.000 208.000 C 184.000 208.220,184.180 208.400,184.400 208.400 C 184.620 208.400,184.800 208.700,184.800 209.067 C 184.800 209.433,184.906 209.627,185.037 209.497 C 185.370 209.163,184.823 207.600,184.373 207.600 C 184.168 207.600,184.000 207.780,184.000 208.000 M107.300 211.023 C 106.711 211.663,106.662 212.000,107.157 212.000 C 107.498 212.000,108.137 210.796,107.909 210.583 C 107.849 210.527,107.575 210.725,107.300 211.023 M135.570 212.164 C 135.925 212.592,135.926 212.798,135.575 213.016 C 135.144 213.282,134.420 212.590,134.406 211.900 C 134.396 211.407,135.069 211.560,135.570 212.164 M128.800 212.711 C 128.800 213.147,130.433 214.500,130.671 214.262 C 130.779 214.155,130.492 213.692,130.033 213.233 C 129.151 212.351,128.800 212.202,128.800 212.711 M77.700 219.423 C 77.111 220.063,77.062 220.400,77.557 220.400 C 77.898 220.400,78.537 219.196,78.309 218.983 C 78.249 218.927,77.975 219.125,77.700 219.423 M134.000 220.000 C 134.000 220.220,134.177 220.400,134.394 220.400 C 134.611 220.400,135.279 221.141,135.879 222.047 C 136.478 222.953,137.039 223.482,137.126 223.222 C 137.213 222.962,137.027 222.536,136.714 222.275 C 136.400 222.014,135.837 221.305,135.463 220.700 C 134.787 219.609,134.000 219.232,134.000 220.000 M139.692 220.475 C 139.779 220.736,140.064 221.021,140.325 221.108 C 140.618 221.206,140.707 221.023,140.557 220.633 C 140.278 219.906,139.452 219.755,139.692 220.475 M324.800 220.575 C 324.800 220.891,324.130 221.781,323.312 222.553 C 322.494 223.326,321.936 224.069,322.072 224.205 C 322.208 224.342,322.953 223.820,323.727 223.047 C 325.194 221.579,325.972 220.000,325.227 220.000 C 324.992 220.000,324.800 220.259,324.800 220.575 M76.262 221.531 C 75.536 222.334,75.416 222.800,75.936 222.800 C 76.120 222.800,76.477 222.350,76.727 221.800 C 77.269 220.611,77.155 220.545,76.262 221.531 M74.584 223.627 C 74.439 223.861,74.416 224.149,74.533 224.267 C 74.820 224.553,75.600 224.048,75.600 223.576 C 75.600 223.065,74.909 223.099,74.584 223.627 M142.400 224.229 C 142.400 224.653,143.636 225.697,143.867 225.467 C 143.992 225.341,143.817 224.960,143.476 224.619 C 142.841 223.984,142.400 223.824,142.400 224.229 M194.000 226.219 C 194.000 226.451,196.018 228.400,196.258 228.400 C 196.588 228.400,196.343 227.979,195.454 227.021 C 194.553 226.048,194.000 225.743,194.000 226.219 " stroke="none" fill="#fcfcfc" fill-rule="evenodd"></path><path id="path1" d="M115.700 170.261 C 114.585 170.502,114.511 171.200,115.600 171.200 C 116.040 171.200,116.400 171.065,116.400 170.900 C 116.399 170.554,123.299 170.485,123.600 170.828 C 123.710 170.953,124.633 171.453,125.650 171.939 C 127.382 172.766,131.046 176.255,132.400 178.365 C 133.601 180.237,134.338 180.993,134.654 180.678 C 134.832 180.501,134.802 180.231,134.587 180.078 C 133.919 179.601,132.000 176.585,132.000 176.012 C 132.000 175.712,131.886 175.581,131.747 175.720 C 131.440 176.027,129.754 173.958,129.912 173.470 C 129.974 173.280,129.801 173.200,129.527 173.291 C 129.253 173.382,128.596 172.994,128.066 172.428 C 127.537 171.863,126.945 171.445,126.752 171.500 C 126.558 171.555,126.400 171.401,126.400 171.157 C 126.400 170.914,126.142 170.814,125.826 170.935 C 125.510 171.056,125.182 170.946,125.097 170.690 C 124.937 170.212,117.500 169.873,115.700 170.261 M173.400 170.400 C 173.536 170.620,174.796 170.800,176.200 170.800 C 177.604 170.800,178.864 170.620,179.000 170.400 C 179.157 170.147,178.130 170.000,176.200 170.000 C 174.270 170.000,173.243 170.147,173.400 170.400 M179.600 170.566 C 179.600 170.863,179.915 171.207,180.300 171.329 C 182.215 171.936,184.188 173.500,184.574 174.719 C 184.728 175.203,185.022 175.600,185.227 175.600 C 185.432 175.600,185.600 175.878,185.600 176.218 C 185.600 176.558,186.014 177.251,186.520 177.757 C 187.027 178.263,187.372 178.885,187.287 179.139 C 187.203 179.392,187.328 179.600,187.567 179.600 C 187.805 179.600,188.000 179.835,188.000 180.122 C 188.000 180.409,188.526 181.473,189.169 182.486 C 189.812 183.500,190.256 184.410,190.157 184.510 C 190.058 184.609,190.484 185.233,191.104 185.897 C 191.724 186.561,192.165 187.306,192.083 187.552 C 192.000 187.799,192.149 188.000,192.413 188.000 C 192.716 188.000,192.804 187.667,192.652 187.100 C 192.519 186.605,192.408 186.054,192.405 185.876 C 192.402 185.698,192.235 185.655,192.033 185.780 C 191.830 185.905,191.546 185.465,191.401 184.803 C 191.255 184.142,190.974 183.600,190.776 183.600 C 190.578 183.600,190.302 183.150,190.164 182.600 C 190.026 182.050,189.753 181.600,189.557 181.600 C 189.360 181.600,189.200 181.343,189.200 181.029 C 189.200 180.714,188.954 180.211,188.653 179.910 C 188.352 179.609,187.980 178.966,187.826 178.481 C 187.672 177.997,187.393 177.600,187.205 177.600 C 187.017 177.600,186.745 177.060,186.600 176.400 C 186.455 175.740,186.183 175.200,185.995 175.200 C 185.807 175.200,185.531 174.812,185.380 174.338 C 185.080 173.391,183.317 171.600,182.686 171.600 C 182.467 171.600,182.030 171.285,181.714 170.900 C 181.399 170.515,181.255 170.425,181.394 170.700 C 181.533 170.975,181.457 171.200,181.224 171.200 C 180.991 171.200,180.800 171.039,180.800 170.843 C 180.800 170.646,180.530 170.382,180.200 170.255 C 179.849 170.121,179.600 170.250,179.600 170.566 M227.700 170.282 C 227.205 170.378,226.800 170.634,226.800 170.851 C 226.800 171.069,226.600 171.124,226.355 170.972 C 226.111 170.821,225.796 170.856,225.655 171.049 C 225.515 171.242,225.071 171.580,224.669 171.800 C 224.267 172.020,223.997 172.306,224.069 172.436 C 224.141 172.566,223.517 173.336,222.683 174.146 C 221.848 174.957,221.274 175.795,221.406 176.010 C 221.539 176.224,221.457 176.400,221.224 176.400 C 220.991 176.400,220.800 176.670,220.800 177.000 C 220.800 177.330,220.601 177.600,220.357 177.600 C 220.114 177.600,220.018 177.870,220.145 178.200 C 220.271 178.530,220.213 178.800,220.014 178.800 C 219.816 178.800,219.528 179.197,219.374 179.681 C 219.220 180.166,218.848 180.809,218.547 181.110 C 218.246 181.411,218.000 181.914,218.000 182.229 C 218.000 182.543,217.840 182.800,217.643 182.800 C 217.447 182.800,217.174 183.250,217.036 183.800 C 216.898 184.350,216.622 184.800,216.424 184.800 C 216.226 184.800,215.948 185.325,215.807 185.967 C 215.666 186.608,215.252 187.248,214.887 187.388 C 214.314 187.608,214.304 187.694,214.811 188.015 C 215.210 188.267,215.238 188.390,214.900 188.394 C 214.625 188.397,214.400 188.580,214.400 188.800 C 214.400 189.020,214.548 189.200,214.729 189.200 C 215.099 189.200,216.800 185.961,216.800 185.256 C 216.800 185.005,216.939 184.800,217.108 184.800 C 217.278 184.800,217.863 183.945,218.408 182.900 C 218.954 181.855,219.575 180.875,219.788 180.722 C 220.002 180.569,220.058 180.325,219.913 180.179 C 219.767 180.034,220.015 179.529,220.462 179.057 C 221.208 178.272,222.231 176.252,221.928 176.162 C 221.571 176.057,226.300 171.934,227.272 171.504 C 227.892 171.229,228.400 170.914,228.399 170.802 C 228.399 170.691,229.679 170.661,231.244 170.735 C 232.942 170.815,234.266 170.694,234.525 170.435 C 234.960 170.000,229.769 169.884,227.700 170.282 M235.046 170.625 C 234.902 171.000,235.088 171.200,235.579 171.200 C 235.994 171.200,236.425 171.425,236.536 171.700 C 236.689 172.076,236.844 172.052,237.163 171.600 C 237.538 171.071,237.588 171.074,237.594 171.625 C 237.597 171.969,238.140 172.768,238.800 173.400 C 239.460 174.032,240.000 174.764,240.000 175.026 C 240.000 175.288,240.270 175.726,240.600 176.000 C 240.930 176.274,241.200 176.836,241.200 177.249 C 241.200 177.662,241.383 178.000,241.608 178.000 C 241.838 178.000,241.911 178.417,241.775 178.956 C 241.643 179.482,241.730 180.033,241.968 180.180 C 242.205 180.327,242.400 180.797,242.400 181.224 C 242.400 181.651,242.653 182.000,242.963 182.000 C 243.607 182.000,243.356 180.393,242.635 179.906 C 242.329 179.699,242.337 179.610,242.663 179.606 C 242.927 179.603,243.036 179.258,242.916 178.800 C 242.801 178.360,242.568 178.000,242.398 178.000 C 242.228 178.000,241.971 177.370,241.826 176.600 C 241.682 175.830,241.392 175.200,241.182 175.200 C 240.972 175.200,240.800 174.999,240.800 174.753 C 240.800 174.051,237.550 170.987,236.944 171.118 C 236.645 171.182,236.400 171.066,236.400 170.860 C 236.400 170.216,235.278 170.021,235.046 170.625 M170.695 170.677 C 170.307 170.778,170.093 171.027,170.219 171.230 C 170.344 171.434,170.263 171.600,170.037 171.600 C 169.342 171.600,166.826 174.358,166.562 175.408 C 166.425 175.953,166.153 176.400,165.957 176.400 C 165.760 176.400,165.600 176.775,165.600 177.233 C 165.600 178.035,166.445 178.187,166.474 177.390 C 166.482 177.175,166.840 176.505,167.271 175.900 C 167.702 175.295,167.919 174.800,167.752 174.800 C 167.586 174.800,167.968 174.260,168.600 173.600 C 169.232 172.940,169.964 172.400,170.226 172.400 C 170.488 172.400,170.926 172.130,171.200 171.800 C 171.474 171.470,172.047 171.200,172.473 171.200 C 172.899 171.200,173.136 171.020,173.000 170.800 C 172.747 170.391,171.952 170.349,170.695 170.677 M275.200 170.800 C 275.200 171.056,278.792 171.200,285.176 171.200 C 291.396 171.200,295.246 171.049,295.400 170.800 C 295.562 170.537,292.137 170.400,285.424 170.400 C 278.875 170.400,275.200 170.544,275.200 170.800 M113.376 171.162 C 113.528 171.408,113.374 171.600,113.024 171.600 C 112.681 171.600,112.400 171.777,112.400 171.992 C 112.400 172.208,111.951 172.497,111.403 172.635 C 110.854 172.773,110.497 173.033,110.609 173.214 C 110.720 173.395,110.446 173.658,110.000 173.800 C 109.554 173.942,109.292 174.226,109.420 174.432 C 109.718 174.915,108.594 176.051,108.183 175.681 C 108.012 175.526,107.990 175.606,108.134 175.858 C 108.278 176.110,108.115 176.424,107.772 176.555 C 107.430 176.687,107.262 176.977,107.400 177.200 C 107.538 177.423,107.369 177.714,107.025 177.846 C 106.681 177.978,106.400 178.338,106.400 178.647 C 106.400 178.955,106.040 179.516,105.600 179.893 C 105.160 180.270,104.800 180.808,104.800 181.089 C 104.800 181.370,104.623 181.600,104.408 181.600 C 104.192 181.600,103.902 182.050,103.764 182.600 C 103.626 183.150,103.365 183.600,103.184 183.600 C 103.002 183.600,102.739 183.963,102.598 184.406 C 102.457 184.849,102.190 185.117,102.004 185.002 C 101.817 184.887,101.549 185.320,101.408 185.963 C 101.267 186.607,100.892 187.233,100.576 187.354 C 100.259 187.476,100.000 187.861,100.000 188.211 C 100.000 188.561,99.820 188.736,99.600 188.600 C 99.380 188.464,99.200 188.606,99.200 188.915 C 99.200 189.225,98.885 189.848,98.500 190.301 C 98.115 190.755,97.530 191.524,97.200 192.012 C 96.870 192.499,96.354 193.155,96.052 193.468 C 95.751 193.782,95.605 194.139,95.728 194.261 C 95.851 194.384,95.512 194.924,94.976 195.461 C 94.439 195.997,94.000 196.581,94.000 196.757 C 94.000 197.039,93.553 197.651,92.007 199.483 C 91.783 199.749,91.600 200.159,91.600 200.396 C 91.600 200.632,91.330 200.929,91.000 201.055 C 90.670 201.182,90.400 201.509,90.400 201.782 C 90.400 202.221,89.976 202.835,88.367 204.726 C 88.121 205.016,88.002 205.335,88.102 205.436 C 88.461 205.795,89.499 205.142,89.943 204.278 C 90.474 203.246,91.316 201.884,91.600 201.600 C 92.168 201.032,93.600 198.783,93.600 198.459 C 93.600 198.254,93.870 197.982,94.200 197.855 C 94.530 197.729,94.800 197.377,94.800 197.075 C 94.800 196.772,95.160 196.198,95.600 195.800 C 96.040 195.402,96.400 194.834,96.400 194.538 C 96.400 194.242,96.577 194.000,96.792 194.000 C 97.008 194.000,97.294 193.563,97.428 193.029 C 97.563 192.495,97.926 191.961,98.236 191.841 C 98.546 191.722,98.800 191.416,98.800 191.159 C 98.800 190.903,99.115 190.400,99.500 190.041 C 99.885 189.682,100.380 189.100,100.600 188.747 C 100.820 188.395,101.765 186.990,102.700 185.625 C 103.635 184.260,104.400 182.985,104.400 182.792 C 104.400 182.598,104.714 182.264,105.097 182.050 C 105.480 181.835,105.679 181.546,105.539 181.406 C 105.399 181.266,105.671 180.747,106.142 180.253 C 106.614 179.758,107.270 178.937,107.600 178.427 C 109.640 175.279,113.063 172.000,114.311 172.000 C 115.099 172.000,114.679 171.028,113.819 170.862 C 113.381 170.776,113.210 170.892,113.376 171.162 M268.000 171.172 C 268.000 171.919,268.900 172.082,271.493 171.805 C 273.012 171.642,273.910 171.392,273.620 171.212 C 272.885 170.758,268.000 170.723,268.000 171.172 M265.200 172.008 C 265.200 172.243,264.777 172.309,264.200 172.164 C 263.571 172.006,263.200 172.083,263.200 172.369 C 263.200 173.042,264.383 173.377,264.907 172.853 C 265.156 172.604,265.954 172.400,266.680 172.400 C 267.406 172.400,268.000 172.220,268.000 172.000 C 268.000 171.780,267.370 171.600,266.600 171.600 C 265.830 171.600,265.200 171.783,265.200 172.008 M294.900 172.198 C 294.256 172.930,294.270 173.064,295.021 173.353 C 295.377 173.489,295.537 173.422,295.397 173.195 C 295.263 172.978,295.343 172.800,295.576 172.800 C 295.809 172.800,296.000 172.530,296.000 172.200 C 296.000 171.454,295.556 171.453,294.900 172.198 M261.600 173.200 C 261.600 173.420,261.960 173.600,262.400 173.600 C 262.840 173.600,263.200 173.420,263.200 173.200 C 263.200 172.980,262.840 172.800,262.400 172.800 C 261.960 172.800,261.600 172.980,261.600 173.200 M260.000 173.563 C 260.000 173.795,259.542 174.100,258.981 174.240 C 258.421 174.381,258.053 174.586,258.162 174.696 C 258.380 174.913,257.415 176.000,257.005 176.000 C 256.866 176.000,256.867 175.775,257.006 175.500 C 257.145 175.225,256.976 175.349,256.630 175.776 C 256.283 176.204,256.000 176.729,256.000 176.943 C 256.000 177.158,255.889 177.222,255.752 177.086 C 255.463 176.796,254.400 177.768,254.400 178.322 C 254.400 178.531,254.132 178.924,253.804 179.196 C 253.477 179.468,253.307 179.850,253.428 180.045 C 253.549 180.240,253.501 180.400,253.321 180.400 C 252.837 180.400,251.901 182.716,252.194 183.191 C 252.333 183.416,252.257 183.600,252.024 183.600 C 251.791 183.600,251.600 184.129,251.600 184.776 C 251.600 185.423,251.420 186.064,251.200 186.200 C 250.980 186.336,250.800 187.686,250.800 189.200 C 250.800 190.714,250.980 192.064,251.200 192.200 C 251.420 192.336,251.600 192.994,251.600 193.662 C 251.600 194.853,252.609 197.113,253.400 197.694 C 253.639 197.869,253.646 197.990,253.417 197.994 C 253.207 197.997,254.145 199.080,255.503 200.400 C 256.860 201.720,258.247 202.800,258.585 202.800 C 259.454 202.800,259.350 202.101,258.438 201.812 C 257.399 201.482,254.141 198.177,254.321 197.636 C 254.401 197.396,254.272 197.200,254.033 197.200 C 253.795 197.200,253.600 196.930,253.600 196.600 C 253.600 196.270,253.440 196.000,253.244 196.000 C 253.049 196.000,252.914 195.685,252.944 195.300 C 252.975 194.915,252.808 194.634,252.573 194.676 C 252.319 194.721,252.215 194.276,252.318 193.581 C 252.412 192.937,252.362 192.093,252.206 191.705 C 251.853 190.828,251.811 186.856,252.150 186.517 C 252.288 186.379,252.400 185.754,252.400 185.128 C 252.400 184.502,252.568 183.677,252.774 183.295 C 252.980 182.913,253.397 182.060,253.701 181.400 C 255.171 178.205,256.157 176.953,257.825 176.161 C 258.522 175.831,259.435 175.240,259.855 174.850 C 260.274 174.459,260.861 174.220,261.159 174.320 C 261.484 174.428,261.627 174.280,261.517 173.950 C 261.298 173.292,260.000 172.961,260.000 173.563 M293.223 174.700 C 292.295 175.922,291.364 177.090,289.600 179.242 C 288.950 180.036,288.520 180.786,288.644 180.910 C 288.768 181.035,288.404 181.441,287.835 181.814 C 287.266 182.187,286.800 182.673,286.800 182.893 C 286.800 183.114,286.260 183.909,285.600 184.661 C 284.940 185.413,284.400 186.202,284.400 186.414 C 284.400 186.991,285.197 186.880,285.217 186.300 C 285.226 186.025,285.766 185.358,286.417 184.819 C 287.068 184.279,287.600 183.593,287.600 183.295 C 287.600 182.997,287.780 182.864,288.000 183.000 C 288.220 183.136,288.400 182.976,288.400 182.643 C 288.400 182.311,288.715 181.856,289.100 181.632 C 289.485 181.408,289.644 181.219,289.453 181.212 C 289.001 181.196,291.042 178.514,292.581 177.100 C 293.239 176.495,293.549 176.000,293.269 176.000 C 292.988 176.000,293.218 175.574,293.779 175.054 C 294.847 174.065,295.055 173.600,294.429 173.600 C 294.225 173.600,293.682 174.095,293.223 174.700 M164.921 179.155 C 164.260 180.214,163.773 184.588,164.357 184.227 C 164.600 184.076,164.800 183.639,164.800 183.256 C 164.800 182.873,165.020 182.340,165.290 182.070 C 165.677 181.683,165.671 181.405,165.262 180.751 C 164.978 180.295,164.847 179.820,164.972 179.694 C 165.098 179.569,165.200 179.687,165.200 179.957 C 165.200 180.227,165.380 180.336,165.600 180.200 C 166.065 179.913,166.146 178.400,165.696 178.400 C 165.529 178.400,165.180 178.740,164.921 179.155 M134.826 180.969 C 134.333 181.563,134.645 182.121,136.669 184.257 C 137.147 184.762,137.654 185.540,137.796 185.987 C 137.938 186.434,138.222 186.800,138.427 186.800 C 138.632 186.800,138.800 187.057,138.800 187.371 C 138.800 187.685,139.219 188.272,139.732 188.675 C 140.245 189.078,140.590 189.631,140.499 189.904 C 140.408 190.177,140.618 190.509,140.967 190.643 C 141.315 190.776,141.600 191.108,141.600 191.381 C 141.600 191.653,141.960 192.202,142.400 192.600 C 142.840 192.998,143.200 193.523,143.200 193.766 C 143.200 194.009,143.578 194.443,144.039 194.731 C 144.500 195.020,144.774 195.359,144.648 195.485 C 144.522 195.612,144.960 196.364,145.623 197.158 C 146.286 197.951,146.957 198.790,147.114 199.022 C 147.883 200.155,148.447 201.079,148.857 201.878 C 149.326 202.790,150.345 203.389,150.746 202.988 C 150.873 202.861,150.712 202.593,150.388 202.393 C 150.065 202.193,149.800 201.875,149.800 201.686 C 149.800 201.497,149.530 201.063,149.200 200.720 C 148.870 200.378,148.330 199.694,148.000 199.200 C 147.670 198.706,147.130 198.022,146.800 197.680 C 146.470 197.337,146.272 197.044,146.359 197.029 C 146.606 196.984,143.661 192.485,143.198 192.199 C 142.972 192.059,142.908 191.749,143.055 191.511 C 143.215 191.251,143.137 191.191,142.862 191.362 C 142.608 191.519,142.400 191.484,142.400 191.285 C 142.400 191.085,142.043 190.490,141.607 189.961 C 140.312 188.391,140.248 188.301,138.535 185.722 C 137.630 184.359,136.801 183.332,136.693 183.440 C 136.585 183.549,136.381 183.179,136.240 182.619 C 136.100 182.058,135.814 181.600,135.605 181.600 C 135.396 181.600,135.329 181.330,135.455 181.000 C 135.746 180.243,135.441 180.228,134.826 180.969 M319.534 181.869 C 319.168 181.966,318.767 182.309,318.643 182.632 C 318.463 183.100,318.573 183.136,319.187 182.807 C 319.804 182.476,320.788 181.472,320.324 181.646 C 320.256 181.672,319.900 181.772,319.534 181.869 M242.800 182.976 C 242.800 183.293,242.980 183.664,243.200 183.800 C 243.420 183.936,243.600 184.487,243.600 185.024 C 243.600 185.561,243.776 186.000,243.990 186.000 C 244.210 186.000,244.275 186.523,244.140 187.200 C 243.984 187.980,244.062 188.400,244.363 188.400 C 245.079 188.400,245.378 187.177,244.863 186.352 C 244.608 185.945,244.400 185.248,244.400 184.805 C 244.400 184.362,244.237 184.000,244.037 184.000 C 243.838 184.000,243.769 183.640,243.884 183.200 C 244.030 182.644,243.896 182.400,243.447 182.400 C 243.091 182.400,242.800 182.659,242.800 182.976 M294.014 183.453 C 293.180 184.331,293.142 184.469,293.766 184.346 C 294.516 184.198,295.988 182.394,295.349 182.407 C 295.157 182.411,294.556 182.881,294.014 183.453 M316.967 184.789 L 315.800 185.978 304.500 185.989 C 297.226 185.996,293.200 185.857,293.200 185.600 C 293.200 185.380,293.020 185.200,292.800 185.200 C 292.580 185.200,292.400 185.560,292.400 186.000 C 292.400 187.068,315.841 187.280,316.250 186.215 C 316.373 185.894,316.801 185.527,317.200 185.400 C 317.874 185.186,318.601 184.067,318.276 183.743 C 318.198 183.664,317.608 184.135,316.967 184.789 M163.200 185.167 C 163.200 185.658,163.458 186.000,163.829 186.000 C 164.202 186.000,164.406 185.728,164.329 185.333 C 164.135 184.330,163.200 184.192,163.200 185.167 M162.800 187.400 C 162.800 187.950,162.980 188.400,163.200 188.400 C 163.420 188.400,163.600 187.950,163.600 187.400 C 163.600 186.850,163.420 186.400,163.200 186.400 C 162.980 186.400,162.800 186.850,162.800 187.400 M270.059 187.794 C 267.593 190.603,270.180 195.244,273.269 193.551 C 274.168 193.059,274.142 193.031,272.494 192.740 C 270.134 192.324,270.000 192.187,270.000 190.190 C 270.000 188.265,270.660 187.600,272.574 187.600 C 273.138 187.600,273.600 187.420,273.600 187.200 C 273.600 186.980,273.345 186.800,273.033 186.800 C 272.721 186.800,272.207 186.701,271.892 186.580 C 271.551 186.449,270.808 186.941,270.059 187.794 M192.923 188.037 C 192.607 188.353,192.612 188.713,192.943 189.338 C 193.859 191.069,194.789 192.144,195.091 191.821 C 195.261 191.639,195.185 191.413,194.922 191.319 C 194.660 191.225,194.544 190.890,194.665 190.574 C 194.786 190.258,194.707 190.000,194.489 190.000 C 194.113 190.000,193.465 188.539,193.557 187.900 C 193.617 187.485,193.436 187.524,192.923 188.037 M161.996 188.900 C 161.993 189.175,161.880 190.075,161.743 190.900 C 161.579 191.895,161.648 192.400,161.948 192.400 C 162.196 192.400,162.400 191.986,162.400 191.480 C 162.400 190.974,162.586 190.374,162.813 190.147 C 163.266 189.694,162.928 188.400,162.357 188.400 C 162.161 188.400,161.998 188.625,161.996 188.900 M244.800 189.400 C 244.800 189.950,244.963 190.400,245.163 190.400 C 245.362 190.400,245.431 190.760,245.316 191.200 C 245.170 191.756,245.304 192.000,245.753 192.000 C 246.176 192.000,246.400 191.654,246.400 191.000 C 246.400 190.450,246.220 190.000,246.000 190.000 C 245.780 190.000,245.600 189.640,245.600 189.200 C 245.600 188.760,245.420 188.400,245.200 188.400 C 244.980 188.400,244.800 188.850,244.800 189.400 M213.373 190.100 C 213.219 190.595,212.905 191.120,212.676 191.267 C 212.121 191.623,211.898 193.200,212.403 193.200 C 212.621 193.200,212.800 193.033,212.800 192.829 C 212.800 192.624,213.025 192.212,213.300 191.913 C 214.127 191.014,214.769 189.702,214.510 189.443 C 214.045 188.978,213.652 189.205,213.373 190.100 M118.817 192.900 C 118.164 193.835,117.348 195.001,117.003 195.491 C 116.658 195.981,116.393 196.490,116.414 196.621 C 116.435 196.753,116.081 197.183,115.626 197.577 C 115.172 197.971,114.800 198.476,114.800 198.698 C 114.800 198.920,114.522 199.332,114.183 199.614 C 113.716 200.002,113.679 200.232,114.033 200.563 C 114.373 200.881,114.551 200.862,114.686 200.493 C 114.788 200.214,115.125 199.732,115.436 199.421 C 115.746 199.111,116.000 198.686,116.000 198.478 C 116.000 198.269,116.268 197.876,116.596 197.604 C 116.923 197.332,117.114 196.984,117.020 196.832 C 116.925 196.679,117.287 196.224,117.824 195.821 C 118.361 195.418,118.800 194.843,118.800 194.544 C 118.800 194.245,118.945 194.000,119.123 194.000 C 119.300 194.000,119.634 193.505,119.864 192.900 C 120.254 191.876,120.305 191.855,120.607 192.600 C 120.784 193.040,121.176 193.670,121.477 194.000 C 122.918 195.580,123.600 196.571,123.600 197.085 C 123.600 197.394,123.765 197.545,123.968 197.420 C 124.170 197.295,124.541 197.816,124.792 198.577 C 125.044 199.339,125.598 200.073,126.025 200.208 C 126.451 200.343,126.800 200.632,126.800 200.851 C 126.800 201.069,126.575 201.125,126.300 200.977 C 126.025 200.828,126.323 201.177,126.962 201.753 C 127.601 202.329,128.276 202.800,128.462 202.800 C 129.072 202.800,128.816 202.202,127.984 201.683 C 127.536 201.403,127.260 201.026,127.372 200.845 C 127.649 200.398,125.815 198.718,125.449 199.084 C 125.289 199.244,125.265 199.095,125.397 198.752 C 125.529 198.409,125.358 197.897,125.018 197.615 C 124.678 197.333,124.400 196.848,124.400 196.538 C 124.400 196.229,124.130 195.871,123.800 195.745 C 123.470 195.618,123.200 195.277,123.200 194.986 C 123.200 194.696,122.756 194.109,122.214 193.682 C 121.671 193.255,121.337 192.797,121.471 192.663 C 121.757 192.376,120.859 191.200,120.354 191.200 C 120.162 191.200,119.471 191.965,118.817 192.900 M195.175 192.230 C 194.865 192.603,194.804 192.971,195.026 193.130 C 195.232 193.279,195.743 194.075,196.163 194.900 C 196.583 195.725,197.078 196.400,197.263 196.400 C 197.448 196.400,197.555 196.535,197.501 196.700 C 197.352 197.151,199.680 201.600,200.065 201.600 C 200.249 201.600,200.400 201.870,200.400 202.200 C 200.400 202.530,200.574 202.800,200.787 202.800 C 201.001 202.800,201.071 203.070,200.945 203.400 C 200.818 203.730,200.899 204.000,201.125 204.000 C 201.351 204.000,201.655 204.540,201.800 205.200 C 201.945 205.860,202.229 206.400,202.432 206.400 C 202.634 206.400,202.781 206.535,202.757 206.700 C 202.653 207.421,203.338 208.800,203.800 208.800 C 204.262 208.800,204.947 207.421,204.843 206.700 C 204.819 206.535,204.959 206.400,205.153 206.400 C 205.497 206.400,206.130 204.904,206.043 204.300 C 206.019 204.135,206.199 204.000,206.443 204.000 C 206.686 204.000,206.778 203.721,206.647 203.379 C 206.511 203.025,206.578 202.863,206.803 203.002 C 207.019 203.136,207.419 202.740,207.690 202.123 C 207.962 201.505,208.367 200.868,208.592 200.706 C 208.816 200.544,208.853 200.409,208.673 200.406 C 208.493 200.403,208.716 199.880,209.168 199.245 C 209.863 198.269,209.904 198.018,209.431 197.626 C 208.978 197.250,208.821 197.393,208.604 198.381 C 208.457 199.051,208.171 199.600,207.968 199.600 C 207.766 199.600,207.629 199.735,207.664 199.900 C 207.775 200.426,207.079 201.789,206.530 202.120 C 206.239 202.296,206.000 202.791,206.000 203.220 C 206.000 203.649,205.826 204.000,205.613 204.000 C 205.399 204.000,205.329 204.270,205.455 204.600 C 205.582 204.930,205.486 205.200,205.243 205.200 C 204.999 205.200,204.800 205.470,204.800 205.800 C 204.800 206.130,204.626 206.400,204.413 206.400 C 204.199 206.400,204.140 206.700,204.281 207.066 C 204.452 207.513,204.383 207.636,204.068 207.442 C 203.811 207.283,203.600 206.893,203.600 206.576 C 203.600 206.259,203.440 206.000,203.243 206.000 C 203.047 206.000,202.774 205.550,202.636 205.000 C 202.498 204.450,202.222 204.000,202.024 204.000 C 201.826 204.000,201.553 203.495,201.417 202.878 C 201.281 202.260,200.834 201.512,200.422 201.216 C 200.010 200.919,199.766 200.434,199.879 200.138 C 199.993 199.842,199.867 199.600,199.600 199.600 C 199.333 199.600,199.218 199.330,199.345 199.000 C 199.471 198.670,199.401 198.400,199.187 198.400 C 198.974 198.400,198.800 198.130,198.800 197.800 C 198.800 197.470,198.601 197.200,198.357 197.200 C 198.114 197.200,198.022 196.921,198.153 196.579 C 198.289 196.223,198.222 196.063,197.995 196.203 C 197.778 196.337,197.600 196.167,197.600 195.824 C 197.600 195.481,197.420 195.200,197.200 195.200 C 196.980 195.200,196.837 195.065,196.882 194.900 C 196.927 194.735,196.665 194.038,196.298 193.351 C 195.932 192.664,195.745 191.989,195.883 191.851 C 196.021 191.713,196.035 191.600,195.916 191.600 C 195.796 191.600,195.462 191.884,195.175 192.230 M160.886 193.100 C 160.983 193.815,160.913 194.400,160.731 194.400 C 160.549 194.400,160.400 194.850,160.400 195.400 C 160.400 195.950,160.580 196.400,160.800 196.400 C 161.020 196.400,161.200 196.038,161.200 195.595 C 161.200 195.152,161.421 194.434,161.692 194.001 C 162.103 193.344,162.062 193.095,161.448 192.506 C 160.737 191.825,160.717 191.847,160.886 193.100 M246.000 193.400 C 246.000 193.950,246.180 194.400,246.400 194.400 C 246.620 194.400,246.800 193.950,246.800 193.400 C 246.800 192.850,246.620 192.400,246.400 192.400 C 246.180 192.400,246.000 192.850,246.000 193.400 M211.213 193.471 C 211.206 193.951,210.939 194.604,210.620 194.923 C 209.925 195.618,209.367 197.600,209.866 197.600 C 210.059 197.600,210.572 196.925,211.005 196.100 C 211.438 195.275,211.929 194.499,212.096 194.376 C 212.263 194.253,212.136 193.803,211.813 193.376 C 211.238 192.617,211.225 192.619,211.213 193.471 M307.500 193.065 C 307.775 193.176,308.000 193.522,308.000 193.833 C 308.000 194.508,312.592 194.661,313.000 194.000 C 313.154 193.750,312.345 193.600,310.847 193.600 C 309.527 193.600,308.336 193.420,308.200 193.200 C 308.064 192.980,307.738 192.814,307.476 192.832 C 307.133 192.854,307.139 192.919,307.500 193.065 M177.891 194.243 C 177.761 194.372,177.752 194.731,177.870 195.039 C 177.989 195.348,177.886 195.600,177.643 195.600 C 177.399 195.600,177.200 196.140,177.200 196.800 C 177.200 197.460,177.380 198.000,177.600 198.000 C 177.820 198.000,178.000 197.460,178.000 196.800 C 178.000 196.000,178.200 195.600,178.600 195.600 C 178.930 195.600,179.200 195.442,179.200 195.249 C 179.200 194.750,178.173 193.960,177.891 194.243 M228.489 194.343 C 228.209 194.518,227.939 195.231,227.889 195.929 C 227.836 196.687,227.581 197.199,227.257 197.199 C 226.950 197.200,226.810 197.449,226.935 197.774 C 227.056 198.090,226.940 198.425,226.678 198.519 C 226.415 198.613,226.321 198.822,226.470 198.982 C 226.767 199.302,228.098 198.688,228.029 198.262 C 227.945 197.743,228.516 195.792,228.893 195.313 C 229.413 194.652,229.122 193.950,228.489 194.343 M246.880 194.480 C 246.325 195.035,246.229 196.800,246.755 196.800 C 246.950 196.800,247.231 197.610,247.379 198.600 C 247.528 199.590,247.818 200.400,248.025 200.400 C 248.510 200.400,248.484 199.924,247.838 196.914 C 247.545 195.547,247.401 194.332,247.519 194.214 C 247.637 194.096,247.649 194.000,247.547 194.000 C 247.444 194.000,247.144 194.216,246.880 194.480 M313.878 194.256 C 313.368 194.766,314.072 195.197,315.025 194.958 C 315.619 194.809,316.000 194.886,316.000 195.157 C 316.000 195.400,316.324 195.600,316.720 195.600 C 317.116 195.600,317.640 195.800,317.885 196.045 C 318.130 196.290,318.526 196.369,318.765 196.222 C 319.602 195.704,319.186 195.268,317.600 195.000 C 316.720 194.851,316.000 194.566,316.000 194.365 C 316.000 193.952,314.270 193.863,313.878 194.256 M159.673 196.769 C 159.743 197.522,160.025 198.212,160.300 198.303 C 160.996 198.531,160.905 197.170,160.161 196.200 C 159.576 195.438,159.553 195.465,159.673 196.769 M229.200 196.824 C 229.200 197.537,229.367 197.944,229.600 197.800 C 229.820 197.664,230.000 197.113,230.000 196.576 C 230.000 196.039,229.820 195.600,229.600 195.600 C 229.380 195.600,229.200 196.151,229.200 196.824 M178.800 196.571 C 178.800 196.886,179.046 197.389,179.347 197.690 C 179.648 197.991,180.032 198.679,180.201 199.219 C 180.370 199.758,180.659 200.298,180.844 200.417 C 181.029 200.537,181.243 201.047,181.320 201.550 C 181.396 202.054,181.657 202.588,181.898 202.737 C 182.139 202.886,182.460 203.501,182.612 204.104 C 182.763 204.707,183.033 205.200,183.212 205.200 C 183.390 205.200,183.655 205.740,183.800 206.400 C 183.945 207.060,184.224 207.600,184.420 207.600 C 184.617 207.600,184.939 208.185,185.137 208.900 C 185.404 209.862,185.568 210.034,185.768 209.562 C 186.045 208.908,180.807 198.181,179.830 197.400 C 179.555 197.180,179.406 196.775,179.498 196.500 C 179.591 196.225,179.472 196.000,179.233 196.000 C 178.995 196.000,178.800 196.257,178.800 196.571 M319.200 196.400 C 319.200 196.620,319.373 196.800,319.585 196.800 C 320.260 196.800,324.390 199.781,324.395 200.271 C 324.398 200.531,324.676 201.019,325.014 201.357 C 325.352 201.695,325.651 202.113,325.678 202.286 C 325.951 204.024,326.800 204.716,326.800 203.200 C 326.800 202.760,326.609 202.400,326.376 202.400 C 326.143 202.400,326.056 202.232,326.183 202.027 C 326.310 201.822,326.010 201.372,325.518 201.027 C 325.025 200.682,324.836 200.400,325.098 200.400 C 325.359 200.400,324.939 199.766,324.164 198.991 C 323.389 198.215,322.598 197.678,322.406 197.796 C 322.214 197.915,321.949 197.668,321.816 197.249 C 321.507 196.276,319.200 195.528,319.200 196.400 M229.758 198.564 C 229.602 198.972,229.682 199.640,229.937 200.048 C 230.192 200.455,230.400 201.162,230.400 201.618 C 230.400 202.074,230.580 202.336,230.800 202.200 C 231.346 201.863,231.308 200.400,230.753 200.400 C 230.508 200.400,230.396 200.060,230.504 199.644 C 230.792 198.544,230.133 197.589,229.758 198.564 M159.200 199.200 C 159.200 199.640,159.000 200.000,158.755 200.000 C 158.487 200.000,158.380 200.480,158.485 201.200 C 158.582 201.860,158.513 202.400,158.331 202.400 C 158.149 202.400,158.000 202.850,158.000 203.400 C 158.000 203.950,158.180 204.400,158.400 204.400 C 158.620 204.400,158.800 203.961,158.800 203.424 C 158.800 202.887,158.996 202.326,159.235 202.178 C 159.474 202.031,159.581 201.570,159.472 201.155 C 159.364 200.740,159.438 200.400,159.637 200.400 C 159.837 200.400,160.000 199.950,160.000 199.400 C 160.000 198.850,159.820 198.400,159.600 198.400 C 159.380 198.400,159.200 198.760,159.200 199.200 M176.564 199.400 C 176.709 199.977,176.643 200.400,176.408 200.400 C 176.183 200.400,176.000 200.940,176.000 201.600 C 176.000 202.260,175.807 202.800,175.571 202.800 C 175.336 202.800,175.182 203.205,175.231 203.700 C 175.279 204.195,175.183 204.915,175.017 205.300 C 174.850 205.685,174.860 206.315,175.038 206.700 C 175.292 207.251,175.392 207.124,175.506 206.100 C 175.585 205.385,175.806 204.800,175.997 204.800 C 176.187 204.800,176.466 203.808,176.618 202.595 C 176.770 201.382,177.052 200.291,177.247 200.171 C 177.863 199.790,177.636 198.400,176.957 198.400 C 176.470 198.400,176.374 198.644,176.564 199.400 M225.600 200.000 C 225.600 200.220,225.859 200.400,226.176 200.400 C 226.493 200.400,226.864 200.220,227.000 200.000 C 227.136 199.780,226.877 199.600,226.424 199.600 C 225.971 199.600,225.600 199.780,225.600 200.000 M112.852 201.337 C 112.607 201.632,112.500 201.966,112.613 202.080 C 112.727 202.193,112.545 202.514,112.210 202.792 C 111.874 203.070,111.600 203.503,111.600 203.753 C 111.600 204.003,111.233 204.437,110.784 204.717 C 110.336 204.997,110.073 205.394,110.200 205.600 C 110.327 205.806,110.064 206.203,109.616 206.483 C 109.167 206.763,108.800 207.191,108.800 207.434 C 108.800 207.677,108.440 208.202,108.000 208.600 C 107.560 208.998,107.200 209.495,107.200 209.704 C 107.200 209.914,106.665 210.761,106.011 211.586 C 104.839 213.066,104.740 214.117,105.880 212.977 C 106.201 212.656,106.613 212.485,106.795 212.597 C 106.977 212.709,107.031 212.441,106.916 212.001 C 106.801 211.560,106.896 211.200,107.126 211.200 C 107.357 211.200,107.661 210.837,107.802 210.394 C 107.943 209.951,108.205 209.680,108.386 209.791 C 108.567 209.903,108.831 209.530,108.974 208.963 C 109.116 208.396,109.675 207.522,110.216 207.020 C 110.757 206.519,111.200 205.917,111.200 205.683 C 111.200 205.449,111.432 205.019,111.715 204.729 C 112.331 204.097,114.000 201.411,114.000 201.053 C 114.000 200.611,113.314 200.780,112.852 201.337 M248.400 201.800 C 248.400 202.350,248.555 202.800,248.745 202.800 C 248.934 202.800,249.003 203.250,248.898 203.800 C 248.793 204.350,248.891 204.800,249.116 204.800 C 249.341 204.800,249.649 205.700,249.800 206.800 C 249.951 207.900,250.258 208.800,250.481 208.800 C 250.715 208.800,250.780 209.227,250.634 209.809 C 250.464 210.483,250.563 210.888,250.931 211.029 C 251.269 211.158,251.410 211.615,251.296 212.210 L 251.111 213.179 279.255 213.289 C 294.735 213.350,307.460 213.265,307.533 213.100 C 307.607 212.935,307.894 212.800,308.171 212.800 C 310.021 212.800,310.741 208.322,309.132 206.823 C 308.441 206.179,308.147 206.112,307.688 206.493 C 307.204 206.894,307.279 207.026,308.156 207.319 C 309.074 207.625,309.200 207.883,309.200 209.457 C 309.200 210.549,309.044 211.151,308.800 211.000 C 308.580 210.864,308.400 211.014,308.400 211.334 C 308.400 212.367,307.505 212.400,279.614 212.400 L 252.093 212.400 251.852 211.500 C 251.719 211.005,251.608 210.195,251.605 209.700 C 251.602 209.205,251.437 208.800,251.238 208.800 C 251.038 208.800,250.751 207.900,250.600 206.800 C 250.449 205.700,250.179 204.800,250.000 204.800 C 249.821 204.800,249.551 203.900,249.400 202.800 C 249.117 200.739,248.400 200.023,248.400 201.800 M224.400 202.400 C 224.400 202.620,224.659 202.800,224.976 202.800 C 225.293 202.800,225.664 202.620,225.800 202.400 C 225.936 202.180,225.677 202.000,225.224 202.000 C 224.771 202.000,224.400 202.180,224.400 202.400 M230.923 202.837 C 230.440 203.320,230.737 205.286,231.246 204.972 C 231.441 204.851,231.600 205.213,231.600 205.776 C 231.600 206.339,231.780 206.800,232.000 206.800 C 232.521 206.800,232.520 205.321,231.999 204.999 C 231.778 204.863,231.702 204.332,231.831 203.819 C 232.090 202.787,231.554 202.206,230.923 202.837 M259.367 202.853 C 259.057 203.354,259.886 203.985,260.867 203.994 C 261.233 203.997,261.601 204.203,261.684 204.451 C 261.766 204.699,262.771 204.992,263.917 205.102 C 265.063 205.212,266.000 205.469,266.000 205.674 C 266.000 205.879,266.765 205.991,267.700 205.923 C 269.719 205.777,269.637 205.010,267.600 204.979 C 266.830 204.967,265.882 204.812,265.494 204.634 C 265.106 204.456,264.442 204.400,264.020 204.511 C 263.568 204.629,263.160 204.473,263.029 204.130 C 262.906 203.811,262.604 203.674,262.358 203.826 C 262.112 203.978,261.796 203.944,261.655 203.751 C 261.095 202.980,259.642 202.409,259.367 202.853 M128.400 203.519 C 128.400 203.898,129.442 205.300,130.718 206.637 C 131.223 207.167,131.511 207.600,131.357 207.600 C 131.203 207.600,131.462 207.933,131.932 208.341 C 132.401 208.748,132.677 209.189,132.545 209.322 C 132.413 209.454,132.551 209.818,132.852 210.132 C 133.396 210.698,134.092 211.651,134.799 212.797 C 135.078 213.249,135.279 213.281,135.631 212.929 C 135.982 212.578,135.890 212.338,135.247 211.937 C 134.781 211.646,134.400 211.217,134.400 210.985 C 134.400 210.753,134.130 210.211,133.800 209.781 C 131.528 206.822,130.400 205.199,130.400 204.886 C 130.400 204.481,129.085 203.200,128.669 203.200 C 128.521 203.200,128.400 203.343,128.400 203.519 M223.156 205.100 C 222.630 206.145,221.873 207.495,221.473 208.100 C 221.073 208.705,220.893 209.203,221.073 209.206 C 221.253 209.209,221.220 209.344,221.000 209.506 C 220.371 209.968,219.622 211.488,219.890 211.757 C 220.366 212.233,220.717 211.986,220.964 211.000 C 221.102 210.450,221.378 210.000,221.576 210.000 C 221.774 210.000,222.055 209.460,222.200 208.800 C 222.345 208.140,222.615 207.600,222.800 207.600 C 222.985 207.600,223.255 207.058,223.401 206.397 C 223.558 205.682,223.840 205.301,224.096 205.459 C 224.374 205.631,224.446 205.420,224.300 204.863 C 224.176 204.388,224.238 204.000,224.437 204.000 C 224.637 204.000,224.800 203.820,224.800 203.600 C 224.800 202.648,224.040 203.342,223.156 205.100 M150.400 203.874 C 150.400 204.025,151.120 205.002,152.000 206.046 C 152.880 207.090,153.600 208.142,153.600 208.384 C 153.600 208.627,153.870 208.929,154.200 209.055 C 154.530 209.182,154.800 209.508,154.800 209.781 C 154.800 210.053,155.160 210.602,155.600 211.000 C 156.040 211.398,156.400 211.615,156.400 211.481 C 156.400 210.947,155.452 209.200,155.163 209.200 C 154.993 209.200,154.731 208.812,154.580 208.338 C 154.430 207.863,153.851 207.053,153.295 206.538 C 152.738 206.022,152.444 205.594,152.642 205.587 C 152.839 205.579,152.603 205.242,152.117 204.836 C 151.631 204.431,151.346 203.987,151.484 203.850 C 151.621 203.712,151.433 203.600,151.067 203.600 C 150.700 203.600,150.400 203.723,150.400 203.874 M326.900 204.265 C 326.178 204.556,326.264 206.400,327.000 206.400 C 327.400 206.400,327.600 206.000,327.600 205.200 C 327.600 204.540,327.555 204.014,327.500 204.032 C 327.445 204.049,327.175 204.154,326.900 204.265 M157.053 205.634 C 156.690 207.450,156.740 208.400,157.200 208.400 C 157.420 208.400,157.600 207.950,157.600 207.400 C 157.600 206.850,157.793 206.400,158.028 206.400 C 158.584 206.400,158.337 204.708,157.753 204.516 C 157.507 204.435,157.192 204.938,157.053 205.634 M272.000 206.000 C 271.450 206.176,279.235 206.338,289.300 206.360 C 301.260 206.386,307.600 206.261,307.600 206.000 C 307.600 205.515,273.514 205.515,272.000 206.000 M87.100 206.757 C 86.715 207.148,86.400 207.677,86.400 207.934 C 86.400 208.190,86.232 208.400,86.027 208.400 C 85.822 208.400,85.539 208.763,85.398 209.206 C 85.257 209.649,84.975 209.908,84.771 209.782 C 84.567 209.656,84.400 209.751,84.400 209.993 C 84.400 210.404,82.899 212.757,82.354 213.200 C 82.219 213.310,81.981 213.805,81.827 214.300 C 81.507 215.325,82.057 215.495,82.800 214.600 C 83.074 214.270,83.158 214.000,82.988 214.000 C 82.817 214.000,83.065 213.664,83.539 213.253 C 84.012 212.842,84.400 212.330,84.400 212.115 C 84.400 211.900,84.760 211.398,85.200 211.000 C 85.640 210.602,86.000 210.105,86.000 209.896 C 86.000 209.686,86.540 208.833,87.200 208.000 C 88.793 205.988,88.723 205.112,87.100 206.757 M327.467 207.067 C 327.035 207.499,327.158 212.800,327.600 212.800 C 327.831 212.800,328.000 211.533,328.000 209.800 C 328.000 206.788,327.959 206.575,327.467 207.067 M174.226 207.557 C 174.100 207.761,174.100 208.196,174.226 208.523 C 174.352 208.851,174.262 209.238,174.027 209.383 C 173.792 209.528,173.600 210.051,173.600 210.544 C 173.600 211.037,173.414 211.626,173.187 211.853 C 172.750 212.290,173.063 213.600,173.605 213.600 C 173.781 213.600,174.049 212.700,174.200 211.600 C 174.351 210.499,174.638 209.700,174.838 209.823 C 175.037 209.946,175.200 209.507,175.200 208.847 C 175.200 207.626,174.641 206.886,174.226 207.557 M232.000 208.176 C 232.000 208.713,232.163 209.254,232.363 209.377 C 232.562 209.500,232.849 210.501,233.000 211.600 C 233.151 212.700,233.438 213.600,233.638 213.600 C 233.837 213.600,234.000 214.086,234.000 214.680 C 234.000 215.532,234.103 215.657,234.490 215.270 C 234.877 214.883,234.877 214.615,234.490 213.995 C 234.220 213.564,234.000 212.848,234.000 212.405 C 234.000 211.962,233.825 211.600,233.610 211.600 C 233.390 211.600,233.325 211.077,233.460 210.400 C 233.613 209.636,233.537 209.200,233.250 209.200 C 233.003 209.200,232.800 208.750,232.800 208.200 C 232.800 207.650,232.620 207.200,232.400 207.200 C 232.180 207.200,232.000 207.639,232.000 208.176 M156.066 209.224 C 156.140 209.726,156.440 210.216,156.734 210.313 C 157.096 210.433,157.224 210.196,157.134 209.576 C 157.060 209.074,156.760 208.584,156.466 208.487 C 156.104 208.367,155.976 208.604,156.066 209.224 M186.006 210.100 C 186.014 210.769,186.704 211.830,186.962 211.571 C 187.272 211.261,186.759 209.600,186.353 209.600 C 186.159 209.600,186.003 209.825,186.006 210.100 M186.953 212.076 C 186.791 212.338,186.870 212.623,187.129 212.710 C 187.388 212.796,187.600 213.122,187.600 213.433 C 187.600 213.745,187.799 214.000,188.043 214.000 C 188.286 214.000,188.382 214.270,188.255 214.600 C 188.129 214.930,188.199 215.200,188.413 215.200 C 188.626 215.200,188.800 215.470,188.800 215.800 C 188.800 216.130,188.974 216.400,189.187 216.400 C 189.401 216.400,189.460 216.700,189.319 217.066 C 189.148 217.513,189.217 217.636,189.532 217.442 C 189.829 217.258,190.000 217.443,190.000 217.948 C 190.000 218.385,190.246 218.989,190.547 219.290 C 190.848 219.591,191.232 220.271,191.400 220.800 C 191.568 221.329,191.952 222.009,192.253 222.310 C 192.554 222.611,192.800 223.243,192.800 223.714 C 192.800 224.531,192.833 224.538,193.500 223.871 C 193.933 223.438,194.048 223.062,193.800 222.886 C 193.288 222.520,191.637 219.542,189.490 215.113 C 187.776 211.578,187.480 211.223,186.953 212.076 M219.302 212.500 C 219.394 212.775,219.236 213.180,218.949 213.400 C 218.663 213.620,217.418 215.778,216.184 218.195 C 214.950 220.612,213.798 222.682,213.624 222.795 C 213.124 223.119,212.705 224.800,213.124 224.800 C 213.669 224.800,214.441 223.774,214.130 223.463 C 213.985 223.318,214.077 223.200,214.333 223.200 C 214.590 223.200,214.800 222.930,214.800 222.600 C 214.800 222.270,214.999 222.000,215.243 222.000 C 215.486 222.000,215.582 221.730,215.455 221.400 C 215.329 221.070,215.380 220.800,215.569 220.800 C 215.758 220.800,216.026 220.350,216.164 219.800 C 216.302 219.250,216.578 218.800,216.776 218.800 C 216.974 218.800,217.255 218.260,217.400 217.600 C 217.545 216.940,217.810 216.400,217.988 216.400 C 218.167 216.400,218.432 215.928,218.576 215.352 C 218.721 214.775,219.101 214.042,219.420 213.723 C 220.100 213.042,220.189 212.000,219.567 212.000 C 219.328 212.000,219.209 212.225,219.302 212.500 M107.800 212.800 C 107.638 213.063,111.078 213.200,117.824 213.200 L 128.094 213.200 129.418 214.362 C 130.146 215.002,130.620 215.646,130.472 215.795 C 130.323 215.944,130.490 216.276,130.842 216.534 C 131.195 216.792,131.607 217.391,131.757 217.865 C 132.040 218.757,133.132 219.418,133.557 218.955 C 133.691 218.809,133.563 218.606,133.274 218.503 C 132.985 218.400,132.572 217.930,132.357 217.458 C 131.618 215.838,130.998 214.960,129.686 213.681 L 128.372 212.400 118.210 212.400 C 111.866 212.400,107.954 212.550,107.800 212.800 M135.600 213.571 C 135.600 213.776,135.876 214.219,136.214 214.557 C 136.552 214.895,136.837 215.313,136.846 215.486 C 136.873 215.971,138.287 217.180,138.536 216.931 C 138.658 216.809,138.182 215.927,137.479 214.970 C 136.238 213.283,135.600 212.808,135.600 213.571 M326.693 213.441 C 326.261 213.873,326.337 215.514,326.803 215.802 C 327.024 215.939,327.317 215.759,327.454 215.403 C 327.747 214.639,327.117 213.016,326.693 213.441 M172.400 214.776 C 172.400 215.203,172.580 215.664,172.800 215.800 C 173.027 215.940,173.200 215.604,173.200 215.024 C 173.200 214.461,173.020 214.000,172.800 214.000 C 172.580 214.000,172.400 214.349,172.400 214.776 M80.600 216.000 C 80.460 216.440,80.159 216.800,79.930 216.800 C 79.702 216.800,79.614 217.061,79.737 217.380 C 79.869 217.724,79.660 218.054,79.219 218.194 C 78.812 218.323,78.368 218.872,78.232 219.414 C 78.096 219.956,77.830 220.400,77.641 220.400 C 77.452 220.400,77.073 220.940,76.800 221.600 C 76.527 222.260,76.145 222.800,75.951 222.800 C 75.758 222.800,75.600 223.081,75.600 223.424 C 75.600 223.793,75.412 223.931,75.138 223.762 C 74.865 223.593,74.784 223.651,74.941 223.904 C 75.086 224.139,75.048 224.392,74.855 224.466 C 74.302 224.678,73.881 226.400,74.383 226.400 C 74.623 226.400,74.995 225.995,75.209 225.500 C 75.791 224.155,76.539 223.039,77.100 222.680 C 77.375 222.504,77.600 222.169,77.600 221.936 C 77.600 221.702,78.337 220.631,79.237 219.556 C 80.138 218.480,80.736 217.600,80.568 217.600 C 80.399 217.600,80.654 217.182,81.134 216.670 C 81.614 216.159,81.886 215.619,81.737 215.470 C 81.260 214.993,80.861 215.179,80.600 216.000 M171.883 216.250 C 171.758 216.376,171.753 216.733,171.872 217.044 C 171.992 217.355,171.874 217.869,171.612 218.186 C 171.349 218.503,171.200 219.085,171.282 219.481 C 171.363 219.876,171.188 220.385,170.893 220.611 C 170.588 220.844,170.471 221.318,170.621 221.711 C 171.089 222.929,171.518 222.452,171.800 220.400 C 171.951 219.299,172.201 218.477,172.355 218.572 C 172.508 218.667,172.673 218.229,172.721 217.599 C 172.805 216.496,172.358 215.776,171.883 216.250 M234.544 217.846 C 234.691 218.921,234.989 219.860,235.205 219.933 C 235.422 220.007,235.600 220.491,235.600 221.010 C 235.600 221.528,235.750 222.045,235.933 222.159 C 236.117 222.272,236.180 222.957,236.073 223.681 C 235.899 224.868,235.945 224.943,236.540 224.450 C 237.233 223.875,237.453 222.400,236.846 222.400 C 236.651 222.400,236.368 221.410,236.217 220.200 C 236.066 218.990,235.764 218.000,235.546 218.000 C 235.328 218.000,235.206 217.612,235.275 217.137 C 235.344 216.661,235.148 216.189,234.838 216.083 C 234.384 215.929,234.327 216.265,234.544 217.846 M326.000 217.000 C 326.000 217.330,326.180 217.600,326.400 217.600 C 326.620 217.600,326.800 217.330,326.800 217.000 C 326.800 216.670,326.620 216.400,326.400 216.400 C 326.180 216.400,326.000 216.670,326.000 217.000 M138.748 218.137 C 138.993 218.432,139.060 218.821,138.897 219.001 C 138.733 219.181,138.825 219.199,139.100 219.041 C 139.375 218.882,139.600 218.951,139.600 219.193 C 139.600 219.436,139.783 219.851,140.007 220.117 C 141.619 222.028,142.000 222.580,142.000 223.005 C 142.000 223.271,142.452 223.828,143.005 224.243 C 143.558 224.658,143.929 225.208,143.830 225.466 C 143.731 225.723,143.921 226.037,144.251 226.164 C 144.583 226.292,144.723 226.601,144.564 226.859 C 144.396 227.129,144.450 227.216,144.692 227.067 C 144.920 226.926,145.330 227.348,145.602 228.005 L 146.097 229.200 157.849 229.200 L 169.600 229.200 169.600 228.224 C 169.600 227.687,169.780 227.136,170.000 227.000 C 170.220 226.864,170.400 226.403,170.400 225.976 C 170.400 225.011,169.605 224.936,169.587 225.900 C 169.550 227.957,169.307 228.000,157.689 228.000 C 147.006 228.000,145.379 227.881,145.839 227.137 C 145.968 226.928,145.697 226.431,145.237 226.032 C 144.777 225.633,144.400 225.130,144.400 224.915 C 144.400 224.369,142.987 223.146,142.695 223.439 C 142.562 223.571,142.552 223.304,142.672 222.844 C 142.815 222.298,142.668 221.924,142.245 221.762 C 141.890 221.626,141.600 221.346,141.600 221.141 C 141.600 220.708,139.989 218.339,139.400 217.906 C 138.725 217.410,138.276 217.568,138.748 218.137 M324.836 218.900 C 324.539 219.615,324.327 220.425,324.365 220.700 C 324.404 220.975,324.235 221.200,323.991 221.200 C 323.746 221.200,322.973 221.794,322.273 222.520 C 320.959 223.883,316.426 226.400,315.286 226.400 C 314.850 226.400,314.772 226.532,315.045 226.805 C 315.481 227.241,318.000 226.896,318.000 226.400 C 318.000 226.235,318.552 225.990,319.227 225.855 C 319.908 225.718,320.342 225.430,320.203 225.205 C 320.065 224.982,320.242 224.800,320.596 224.800 C 321.343 224.800,324.800 221.276,324.800 220.515 C 324.800 220.232,324.980 220.000,325.200 220.000 C 325.420 220.000,325.600 219.745,325.600 219.433 C 325.600 219.122,325.812 218.796,326.071 218.710 C 326.547 218.551,326.198 217.600,325.664 217.600 C 325.505 217.600,325.132 218.185,324.836 218.900 M133.713 219.647 C 133.290 220.070,134.906 222.524,137.567 225.500 C 138.009 225.995,138.260 226.400,138.124 226.400 C 137.987 226.400,138.202 226.760,138.600 227.200 C 139.323 227.999,139.299 228.000,106.475 228.000 C 77.921 228.000,73.654 227.924,73.848 227.419 C 73.971 227.100,73.942 226.630,73.785 226.376 C 73.379 225.718,72.814 226.713,72.806 228.100 L 72.800 229.200 106.400 229.200 C 143.161 229.200,141.641 229.298,139.404 227.061 C 138.952 226.609,138.927 226.416,139.304 226.264 C 139.596 226.146,139.512 226.050,139.100 226.032 C 138.715 226.014,138.400 225.749,138.400 225.443 C 138.400 225.136,138.104 224.772,137.743 224.633 C 137.381 224.495,137.180 224.287,137.295 224.171 C 137.503 223.964,136.646 222.805,134.892 220.923 C 134.393 220.387,134.089 219.780,134.216 219.574 C 134.532 219.063,134.257 219.103,133.713 219.647 M170.000 223.576 C 170.000 224.003,170.180 224.464,170.400 224.600 C 170.627 224.740,170.800 224.404,170.800 223.824 C 170.800 223.261,170.620 222.800,170.400 222.800 C 170.180 222.800,170.000 223.149,170.000 223.576 M193.600 224.400 C 193.600 224.620,193.791 224.800,194.024 224.800 C 194.257 224.800,194.341 224.971,194.212 225.181 C 193.953 225.600,196.494 228.400,197.133 228.400 C 197.353 228.400,197.604 228.612,197.690 228.871 C 197.777 229.130,198.062 229.209,198.324 229.047 C 198.979 228.642,198.923 228.000,198.232 228.000 C 197.596 228.000,194.400 224.984,194.400 224.385 C 194.400 224.173,194.220 224.000,194.000 224.000 C 193.780 224.000,193.600 224.180,193.600 224.400 M237.063 224.800 C 236.918 225.130,236.940 226.210,237.111 227.200 L 237.422 229.000 273.011 228.979 C 306.492 228.958,312.692 228.795,312.168 227.949 C 311.905 227.523,308.920 227.481,308.733 227.900 C 308.660 228.065,292.825 228.151,273.544 228.092 L 238.489 227.983 238.183 227.092 C 238.015 226.601,237.754 225.750,237.602 225.200 C 237.395 224.451,237.260 224.351,237.063 224.800 M210.900 226.597 C 209.530 228.052,209.354 228.400,209.987 228.400 C 210.370 228.400,213.200 225.746,213.200 225.387 C 213.200 224.785,212.021 225.405,210.900 226.597 M312.800 227.517 C 312.800 228.128,313.012 228.249,313.817 228.095 C 315.014 227.866,314.916 227.056,313.669 226.872 C 313.033 226.779,312.800 226.951,312.800 227.517 M208.400 228.367 C 208.400 228.605,207.950 228.800,207.400 228.800 C 206.850 228.800,206.400 228.980,206.400 229.200 C 206.400 229.651,207.351 229.709,208.716 229.344 C 209.220 229.209,209.569 228.907,209.491 228.674 C 209.296 228.087,208.400 227.835,208.400 228.367 M198.800 229.200 C 198.800 229.420,199.250 229.600,199.800 229.600 C 200.350 229.600,200.800 229.420,200.800 229.200 C 200.800 228.980,200.350 228.800,199.800 228.800 C 199.250 228.800,198.800 228.980,198.800 229.200 M202.200 230.000 C 202.336 230.220,203.067 230.400,203.824 230.400 C 204.581 230.400,205.200 230.220,205.200 230.000 C 205.200 229.780,204.469 229.600,203.576 229.600 C 202.596 229.600,202.051 229.758,202.200 230.000 " stroke="none" fill="#e7ecf9" fill-rule="evenodd"></path></g></svg>